<?xml version="1.0" encoding="utf-8" ?><svg version="1.1" xmlns = 'http://www.w3.org/2000/svg'><defs><font id='web' horiz-adv-x="1000">
<font-face font-family="web" descent="-285" cap-height="638" units-per-em="1000" bbox="-80,-233,1002,909" x-height="453" ascent="715" />
<missing-glyph horiz-adv-x="238" d="" /><glyph horiz-adv-x="238" d="" unicode=" " />
<glyph horiz-adv-x="243" d="M 88 638 L 163 638 L 152 164 L 99 178 L 88 638 Z M 78 39 C 78 52 82 63 92 73 C 102 83 113 88 127 88 C 140 88 151 83 161 73 C 171 63 176 52 176 39 C 176 25 171 14 161 4 C 151 -5 140 -10 127 -10 C 113 -10 102 -5 92 4 C 82 14 78 25 78 39 Z" unicode="!" />
<glyph horiz-adv-x="277" d="M 99 638 L 84 433 L 48 433 L 36 638 L 99 638 Z M 240 638 L 227 433 L 191 433 L 178 638 L 240 638 Z" unicode="&#x22;" />
<glyph horiz-adv-x="385" d="M 7 211 L 7 253 L 76 253 L 107 385 L 37 385 L 37 427 L 117 427 L 165 638 L 213 638 L 164 427 L 272 427 L 321 638 L 368 638 L 320 427 L 378 427 L 378 385 L 310 385 L 279 253 L 348 253 L 348 211 L 269 211 L 220 0 L 173 0 L 221 211 L 114 211 L 65 0 L 17 0 L 66 211 L 7 211 Z M 262 385 L 154 385 L 124 253 L 231 253 L 262 385 Z" unicode="#" />
<glyph horiz-adv-x="450" d="M 197 -11 C 167 -9 140 -5 114 3 C 88 11 64 23 42 40 L 57 98 C 75 84 96 71 122 61 C 147 50 176 45 208 45 C 252 45 285 56 309 79 C 333 102 345 130 345 163 C 345 195 334 222 313 245 C 292 267 260 287 216 303 C 161 322 119 347 89 377 C 59 407 45 443 45 486 C 45 528 58 564 86 594 C 114 624 151 642 197 648 L 197 737 L 239 737 L 239 649 C 288 647 331 634 369 612 L 356 557 C 340 567 321 575 299 583 C 277 590 253 594 228 594 C 207 594 189 591 174 585 C 159 579 147 571 137 561 C 127 551 119 539 114 527 C 109 515 107 503 107 491 C 107 463 116 439 136 420 C 156 400 186 383 227 368 C 284 346 328 320 360 288 C 392 256 408 216 408 168 C 408 142 403 118 395 97 C 386 76 374 58 359 43 C 344 28 326 16 306 8 C 285 0 263 -6 239 -9 L 239 -97 L 197 -97 L 197 -11 Z" unicode="$" />
<glyph horiz-adv-x="700" d="M 37 514 C 37 534 40 552 47 568 C 54 584 64 599 76 611 C 88 623 102 632 118 639 C 134 645 152 649 172 649 C 191 649 209 645 225 639 C 241 632 256 623 268 611 C 280 599 289 584 296 568 C 302 552 306 534 306 514 C 306 494 302 475 296 459 C 289 442 280 428 268 416 C 256 404 241 395 225 389 C 209 382 191 379 172 379 C 152 379 134 382 118 389 C 102 395 88 404 76 416 C 64 428 54 442 47 459 C 40 475 37 494 37 514 Z M 253 514 C 253 540 245 561 229 576 C 213 591 194 599 172 599 C 150 599 130 591 114 576 C 98 561 90 540 90 514 C 90 487 98 466 114 451 C 130 435 150 428 172 428 C 194 428 213 435 229 451 C 245 466 253 487 253 514 Z M 389 125 C 389 145 392 163 399 179 C 406 195 416 210 428 222 C 440 234 454 243 470 250 C 486 256 504 260 524 260 C 543 260 561 256 577 250 C 593 243 608 234 620 222 C 632 210 641 195 648 179 C 654 163 658 145 658 125 C 658 105 654 86 648 70 C 641 53 632 39 620 27 C 608 15 593 5 577 -1 C 561 -7 543 -11 524 -11 C 504 -11 486 -7 470 -1 C 454 5 440 15 428 27 C 416 39 406 53 399 70 C 392 86 389 105 389 125 Z M 605 125 C 605 151 597 172 581 187 C 565 201 546 209 524 209 C 502 209 482 201 466 187 C 450 172 442 151 442 125 C 442 98 450 77 466 61 C 482 45 502 38 524 38 C 546 38 565 45 581 61 C 597 77 605 98 605 125 Z M 593 657 L 625 630 L 101 -19 L 69 9 L 593 657 Z" unicode="%" />
<glyph horiz-adv-x="604" d="M 42 156 C 42 199 53 235 76 263 C 99 291 131 317 171 341 C 141 371 119 398 105 423 C 91 447 84 473 84 499 C 84 521 88 542 97 561 C 105 579 117 595 131 608 C 145 621 162 631 181 638 C 199 645 219 649 239 649 C 259 649 279 645 299 639 C 319 632 336 622 351 609 C 366 596 378 580 387 562 C 396 544 401 523 401 500 C 401 467 390 437 369 410 C 348 382 315 355 269 329 L 438 159 C 453 179 467 202 479 227 C 491 252 501 279 510 307 L 553 263 C 535 206 510 157 480 117 L 597 0 L 512 0 L 440 72 C 412 45 380 24 346 10 C 312 -3 274 -11 234 -11 C 204 -11 178 -6 154 2 C 130 11 110 23 94 39 C 77 54 64 72 55 92 C 46 112 42 134 42 156 Z M 340 499 C 340 525 330 547 312 566 C 294 585 269 595 239 595 C 211 595 188 585 171 567 C 153 549 145 527 145 502 C 145 480 151 460 165 441 C 179 421 199 398 227 371 C 267 393 296 415 314 435 C 331 455 340 477 340 499 Z M 213 299 C 181 281 156 262 136 240 C 116 218 106 191 106 159 C 106 143 109 128 116 114 C 122 100 131 88 143 78 C 154 68 168 60 184 54 C 200 48 217 45 237 45 C 267 45 295 51 322 63 C 349 75 374 92 398 114 L 213 299 Z" unicode="&#x26;" />
<glyph horiz-adv-x="135" d="M 99 638 L 84 433 L 48 433 L 36 638 L 99 638 Z" unicode="'" />
<glyph horiz-adv-x="226" d="M 147 -208 C 131 -177 117 -146 104 -114 C 91 -82 80 -48 71 -12 C 61 24 54 62 49 103 C 44 144 42 189 42 239 C 42 335 52 420 72 496 C 92 572 119 643 155 709 L 219 695 C 185 632 157 562 136 484 C 114 406 104 325 104 240 C 104 152 113 71 132 -2 C 150 -76 178 -150 215 -224 L 147 -208 Z" unicode="(" />
<glyph horiz-adv-x="226" d="M 7 -210 C 41 -147 68 -77 90 1 C 111 79 122 160 122 245 C 122 289 119 331 115 371 C 110 411 103 450 93 488 C 83 526 72 563 58 599 C 44 635 29 672 11 710 L 79 693 C 94 662 108 631 121 599 C 134 567 145 533 155 497 C 164 461 171 422 176 381 C 181 339 184 294 184 246 C 184 150 173 65 153 -11 C 133 -87 105 -158 70 -224 L 7 -210 Z" unicode=")" />
<glyph horiz-adv-x="408" d="M 123 333 L 69 358 L 166 484 L 25 522 L 32 580 L 179 527 L 174 672 L 233 686 L 226 527 L 363 579 L 394 526 L 241 485 L 333 368 L 293 323 L 203 456 L 123 333 Z" unicode="*" />
<glyph horiz-adv-x="462" d="M 44 250 L 44 304 L 201 304 L 201 453 L 261 453 L 261 304 L 418 304 L 418 250 L 261 250 L 261 101 L 201 101 L 201 250 L 44 250 Z" unicode="+" />
<glyph horiz-adv-x="186" d="M 45 -111 C 57 -95 67 -77 75 -57 C 83 -37 87 -22 87 -10 C 73 -7 62 -1 55 8 C 47 17 44 27 44 39 C 44 52 48 63 58 73 C 68 83 79 88 93 88 C 106 88 117 83 127 74 C 137 64 142 53 142 39 C 142 27 139 14 135 0 C 131 -13 125 -28 118 -42 C 111 -56 103 -69 95 -82 C 87 -95 78 -106 70 -115 L 45 -111 Z" unicode="," />
<glyph horiz-adv-x="338" d="M 294 304 L 294 250 L 44 250 L 44 304 L 294 304 Z" unicode="-" />
<glyph horiz-adv-x="186" d="M 44 39 C 44 52 48 63 58 73 C 68 83 79 88 93 88 C 106 88 117 83 127 73 C 137 63 142 52 142 39 C 142 25 137 14 127 4 C 117 -5 106 -10 93 -10 C 79 -10 68 -5 58 4 C 48 14 44 25 44 39 Z" unicode="." />
<glyph horiz-adv-x="348" d="M 294 699 L 346 679 L 25 -158 L -28 -138 L 294 699 Z" unicode="/" />
<glyph horiz-adv-x="504" d="M 462 320 C 462 266 456 218 445 177 C 433 136 418 102 399 74 C 380 46 358 25 332 11 C 306 -3 280 -10 252 -10 C 223 -10 196 -3 171 11 C 145 25 123 45 104 73 C 85 101 70 135 59 177 C 47 218 42 266 42 320 C 42 374 47 421 59 462 C 70 503 85 537 104 565 C 123 593 145 614 171 628 C 196 642 223 649 252 649 C 280 649 306 641 332 627 C 358 613 380 592 399 564 C 418 536 433 502 445 461 C 456 420 462 373 462 320 Z M 398 320 C 398 366 394 406 386 440 C 378 474 367 503 353 525 C 339 547 324 564 306 575 C 288 586 270 592 252 592 C 232 592 214 586 196 575 C 178 564 163 547 150 525 C 136 502 126 474 118 440 C 110 406 106 366 106 320 C 106 273 110 232 118 198 C 126 164 136 135 150 113 C 163 90 178 73 196 62 C 214 51 232 46 252 46 C 270 46 288 51 306 62 C 324 73 339 90 353 113 C 367 135 378 164 386 198 C 394 232 398 273 398 320 Z" unicode="0" />
<glyph horiz-adv-x="255" d="M 122 569 C 116 562 105 555 89 549 C 73 543 59 539 47 537 L 21 589 C 27 590 35 592 45 596 C 55 600 64 604 74 609 C 84 613 93 618 102 624 C 110 629 117 634 122 638 L 186 638 L 186 0 L 122 0 L 122 569 Z" unicode="1" />
<glyph horiz-adv-x="450" d="M 408 0 L 37 0 L 37 15 C 126 112 194 198 242 272 C 289 346 313 409 313 460 C 313 505 301 538 277 560 C 253 582 223 593 188 593 C 165 593 143 589 121 583 C 99 576 80 567 64 557 L 49 612 C 66 623 86 632 110 639 C 134 645 160 649 188 649 C 215 649 240 644 264 636 C 287 628 307 616 324 600 C 340 584 353 564 363 540 C 372 516 377 489 377 458 C 377 429 371 399 360 368 C 348 336 332 304 312 270 C 291 236 266 201 237 165 C 208 129 176 93 141 55 L 408 55 L 408 0 Z" unicode="2" />
<glyph horiz-adv-x="434" d="M 46 84 C 63 73 82 64 104 58 C 125 51 146 47 167 47 C 189 47 209 50 229 56 C 249 62 266 71 281 84 C 296 96 308 112 317 130 C 326 148 331 170 331 194 C 331 212 328 230 321 247 C 314 263 304 278 292 291 C 280 303 265 313 248 321 C 231 329 213 333 194 334 C 189 334 183 333 176 333 C 169 333 163 332 158 331 L 153 385 C 193 392 225 406 249 426 C 273 446 286 470 287 498 C 287 523 278 545 260 564 C 241 582 215 592 183 593 C 163 593 145 591 129 586 C 112 581 95 574 79 564 L 74 622 C 90 630 108 637 126 642 C 144 646 164 648 186 648 C 210 647 233 643 253 635 C 273 627 291 617 306 604 C 320 591 331 576 339 559 C 347 541 351 522 351 502 C 350 468 339 439 319 417 C 299 395 275 380 247 374 C 266 371 285 365 303 355 C 321 345 336 332 350 316 C 364 300 375 281 383 259 C 391 237 395 213 395 187 C 394 157 388 131 378 107 C 368 83 353 62 334 45 C 314 27 291 14 263 4 C 235 -5 203 -9 169 -9 C 148 -8 127 -5 106 0 C 85 5 67 12 52 20 L 46 84 Z" unicode="3" />
<glyph horiz-adv-x="470" d="M 428 183 L 357 183 L 357 0 L 293 0 L 293 183 L 19 183 L 7 234 L 314 638 L 357 638 L 357 235 L 428 235 L 428 183 Z M 294 527 L 292 528 C 280 510 268 492 256 476 C 244 460 232 444 221 429 L 74 235 L 293 235 L 293 430 C 293 446 293 462 293 478 C 293 493 293 509 294 527 Z" unicode="4" />
<glyph horiz-adv-x="454" d="M 412 191 C 412 163 407 137 397 113 C 387 89 373 67 355 49 C 337 31 314 16 288 6 C 261 -4 231 -10 197 -10 C 171 -10 147 -7 125 -1 C 102 5 84 12 71 20 L 63 85 C 102 59 146 46 194 46 C 215 46 235 49 254 56 C 272 63 289 73 303 85 C 317 97 328 113 336 131 C 344 149 348 169 348 191 C 348 213 344 233 336 251 C 328 269 317 284 303 297 C 289 310 273 320 255 328 C 236 335 216 339 196 339 C 173 339 152 337 133 333 C 114 329 97 325 82 319 L 92 638 L 361 638 L 347 583 L 153 583 L 147 387 C 152 388 159 390 169 392 C 179 394 189 395 201 395 C 230 395 257 390 283 380 C 309 370 331 357 350 339 C 369 321 384 300 395 275 C 406 249 412 221 412 191 Z" unicode="5" />
<glyph horiz-adv-x="490" d="M 453 191 C 453 162 448 135 438 111 C 428 86 414 65 396 47 C 378 29 356 15 331 5 C 306 -5 279 -10 250 -10 C 222 -10 195 -5 170 5 C 144 15 122 29 103 48 C 84 67 69 90 58 118 C 47 145 42 176 42 212 C 42 254 49 297 64 340 C 78 383 99 424 125 463 C 151 501 181 537 217 570 C 253 602 292 630 334 653 L 398 625 C 333 591 277 549 231 500 C 184 450 150 395 129 333 C 142 350 159 364 179 376 C 199 387 223 393 252 393 C 282 393 309 388 334 378 C 358 368 379 354 397 336 C 415 318 428 296 438 272 C 448 247 453 220 453 191 Z M 389 188 C 389 209 385 229 378 247 C 371 265 361 280 349 293 C 336 306 321 316 304 324 C 287 331 268 335 248 335 C 214 335 185 326 159 308 C 133 290 116 263 108 226 C 107 221 107 216 107 212 C 107 207 107 202 107 198 C 107 176 110 155 118 136 C 126 117 136 101 149 87 C 162 73 177 62 195 54 C 213 46 231 43 251 43 C 270 43 288 46 305 53 C 322 60 337 70 349 83 C 361 96 371 111 378 129 C 385 147 389 166 389 188 Z" unicode="6" />
<glyph horiz-adv-x="449" d="M 423 638 L 150 0 L 82 0 L 332 583 L 7 583 L 7 638 L 423 638 Z" unicode="7" />
<glyph horiz-adv-x="498" d="M 456 173 C 456 144 450 118 439 96 C 428 73 413 54 395 38 C 376 22 354 9 329 1 C 303 -6 277 -11 249 -11 C 221 -11 194 -6 169 1 C 143 9 121 22 103 38 C 84 54 69 73 58 96 C 47 118 42 144 42 173 C 42 197 46 218 55 238 C 63 257 74 274 88 289 C 102 304 117 316 134 326 C 151 336 168 343 184 349 C 169 354 155 361 141 370 C 127 379 115 390 105 402 C 94 414 85 427 79 443 C 73 459 70 476 70 494 C 70 517 74 538 84 557 C 93 576 106 592 122 606 C 138 620 157 630 179 638 C 201 645 224 649 249 649 C 273 649 296 645 318 638 C 340 630 359 620 375 606 C 391 592 403 576 413 557 C 422 538 427 517 427 494 C 427 476 423 459 417 444 C 411 428 402 414 392 402 C 381 390 369 379 356 370 C 342 361 328 354 314 350 C 330 345 346 338 363 328 C 379 318 394 305 408 290 C 422 275 433 258 442 238 C 451 218 456 197 456 173 Z M 366 493 C 366 507 363 521 357 534 C 351 546 342 557 332 566 C 321 575 308 582 294 587 C 280 592 265 595 249 595 C 233 595 218 592 204 587 C 190 582 177 575 167 566 C 157 557 148 546 142 534 C 136 521 133 507 133 493 C 133 466 143 442 165 421 C 186 400 215 385 252 375 C 288 385 316 401 336 422 C 356 442 366 466 366 493 Z M 392 175 C 392 193 388 209 380 225 C 372 240 361 254 347 266 C 333 278 318 289 300 298 C 282 306 263 313 244 319 C 226 314 208 307 191 299 C 173 290 158 279 145 267 C 132 255 122 241 114 226 C 106 210 102 193 102 175 C 102 155 106 137 114 121 C 122 105 132 91 146 80 C 159 68 174 60 192 54 C 209 48 227 45 247 45 C 266 45 284 48 302 54 C 320 60 335 68 349 80 C 362 91 372 105 380 121 C 388 137 392 155 392 175 Z" unicode="8" />
<glyph horiz-adv-x="490" d="M 448 428 C 448 385 440 342 426 299 C 411 256 391 215 365 176 C 339 137 308 101 273 69 C 237 36 199 8 157 -14 L 93 14 C 157 48 213 90 260 139 C 306 188 340 243 362 305 C 348 287 331 273 311 262 C 291 251 266 246 238 246 C 208 246 180 251 156 261 C 131 271 110 286 92 304 C 74 322 61 343 51 368 C 41 392 37 419 37 449 C 37 477 42 504 52 528 C 62 552 76 574 94 592 C 112 610 133 624 158 634 C 183 644 210 649 240 649 C 268 649 294 644 320 634 C 345 624 367 610 386 591 C 405 572 420 549 431 522 C 442 494 448 463 448 428 Z M 384 438 C 384 460 380 480 372 499 C 364 518 354 534 341 548 C 327 562 312 572 294 580 C 276 588 258 592 239 592 C 219 592 201 588 184 581 C 167 574 152 564 140 552 C 128 539 118 524 111 506 C 104 488 101 469 101 448 C 101 426 104 407 111 389 C 118 371 128 355 140 342 C 152 329 167 319 185 312 C 202 304 221 301 242 301 C 276 301 305 309 331 327 C 357 345 374 373 383 411 C 383 415 384 420 384 424 C 384 428 384 433 384 438 Z" unicode="9" />
<glyph horiz-adv-x="186" d="M 44 39 C 44 52 48 63 58 73 C 68 83 79 88 93 88 C 106 88 117 83 127 73 C 137 63 142 52 142 39 C 142 25 137 14 127 4 C 117 -5 106 -10 93 -10 C 79 -10 68 -5 58 4 C 48 14 44 25 44 39 Z M 44 415 C 44 428 48 439 58 449 C 68 459 79 464 93 464 C 106 464 117 459 127 449 C 137 439 142 428 142 415 C 142 401 137 390 127 380 C 117 370 106 366 93 366 C 79 366 68 370 58 380 C 48 390 44 401 44 415 Z" unicode=":" />
<glyph horiz-adv-x="186" d="M 44 415 C 44 428 48 439 58 449 C 68 459 79 464 93 464 C 106 464 117 459 127 449 C 137 439 142 428 142 415 C 142 401 137 390 127 380 C 117 370 106 366 93 366 C 79 366 68 370 58 380 C 48 390 44 401 44 415 Z M 45 -111 C 57 -95 67 -77 75 -57 C 83 -37 87 -22 87 -10 C 73 -7 62 -1 55 8 C 47 17 44 27 44 39 C 44 52 48 63 58 73 C 68 83 79 88 93 88 C 106 88 117 83 127 74 C 137 64 142 53 142 39 C 142 27 139 14 135 0 C 131 -13 125 -28 118 -42 C 111 -56 103 -69 95 -82 C 87 -95 78 -106 70 -115 L 45 -111 Z" unicode=";" />
<glyph horiz-adv-x="462" d="M 44 315 L 418 437 L 418 379 L 96 277 L 418 175 L 418 118 L 44 240 L 44 315 Z" unicode="&#x3C;" />
<glyph horiz-adv-x="462" d="M 418 218 L 418 164 L 44 164 L 44 218 L 418 218 Z M 418 390 L 418 336 L 44 336 L 44 390 L 418 390 Z" unicode="=" />
<glyph horiz-adv-x="462" d="M 366 277 L 44 379 L 44 437 L 418 315 L 418 240 L 44 118 L 44 175 L 366 277 Z" unicode="&#x3E;" />
<glyph horiz-adv-x="374" d="M 146 178 C 144 186 142 195 141 205 C 139 214 139 223 139 233 C 139 262 144 289 155 314 C 165 338 180 360 200 380 C 218 398 234 417 247 435 C 259 453 266 475 266 500 C 266 524 257 545 239 564 C 221 582 196 592 166 592 C 143 592 122 588 104 582 C 85 575 68 567 53 557 L 39 614 C 54 624 72 632 94 639 C 115 645 139 649 166 649 C 190 649 212 645 232 638 C 252 631 270 621 285 608 C 300 594 312 578 320 559 C 328 540 333 519 333 495 C 333 464 325 437 309 414 C 293 390 272 365 247 339 C 214 304 198 267 198 228 C 198 218 198 208 199 196 C 200 184 202 173 204 164 L 146 178 Z M 128 39 C 128 52 132 63 142 73 C 152 83 163 88 177 88 C 190 88 201 83 211 73 C 221 63 226 52 226 39 C 226 25 221 14 211 4 C 201 -5 190 -10 177 -10 C 163 -10 152 -5 142 4 C 132 14 128 25 128 39 Z" unicode="?" />
<glyph horiz-adv-x="757" d="M 42 321 C 42 370 51 415 69 455 C 87 495 112 530 143 559 C 174 587 210 609 251 625 C 292 641 335 649 380 649 C 424 649 467 641 508 626 C 548 610 584 589 615 561 C 645 533 670 500 688 461 C 706 421 715 378 715 330 C 715 306 711 283 704 260 C 697 236 687 215 673 197 C 659 179 642 164 622 152 C 602 140 579 135 553 135 C 534 135 517 140 501 150 C 485 160 476 176 473 198 C 463 176 449 160 429 150 C 409 140 388 135 366 135 C 348 135 333 137 319 143 C 305 148 293 155 283 165 C 273 174 265 185 259 198 C 253 210 251 224 251 239 C 251 256 254 271 261 284 C 267 297 276 308 287 317 C 298 326 311 333 325 338 C 339 343 353 346 368 348 L 456 356 L 456 385 C 456 404 449 419 435 431 C 421 443 402 449 377 449 C 359 449 342 446 326 441 C 310 435 295 429 283 421 L 270 468 C 283 476 299 483 319 489 C 338 495 358 498 380 498 C 418 498 449 488 475 468 C 500 448 513 419 513 381 L 513 226 C 513 209 517 197 525 190 C 533 183 543 180 554 180 C 585 180 611 193 632 221 C 653 248 664 284 664 330 C 664 370 656 407 640 441 C 624 474 604 502 578 526 C 552 550 522 568 488 581 C 454 594 418 601 381 601 C 343 601 306 594 272 581 C 238 568 207 549 181 525 C 154 500 133 470 117 436 C 101 401 94 362 94 320 C 94 277 101 238 117 204 C 132 169 152 139 178 115 C 203 91 232 72 266 59 C 299 45 334 39 370 39 C 387 39 404 40 421 42 C 437 44 452 47 466 52 L 460 5 C 440 -3 409 -7 368 -7 C 324 -7 283 0 244 16 C 204 32 170 54 140 83 C 110 111 86 146 68 186 C 50 226 42 271 42 321 Z M 456 309 L 379 301 C 359 299 341 293 327 284 C 313 274 306 259 306 239 C 306 223 311 209 323 199 C 335 188 350 183 370 183 C 380 183 391 184 401 188 C 411 192 421 197 429 205 C 437 212 443 221 448 231 C 453 241 456 253 456 267 L 456 309 Z" unicode="@" />
<glyph horiz-adv-x="600" d="M 311 647 C 337 601 363 551 389 497 C 415 442 439 386 461 329 C 483 272 502 215 519 159 C 535 103 548 50 556 0 L 489 0 C 483 28 477 58 469 88 C 461 118 452 148 443 179 L 154 179 C 144 148 136 118 128 88 C 120 58 113 28 108 0 L 44 0 C 53 50 66 103 83 159 C 99 215 118 272 140 329 C 162 386 185 442 211 497 C 236 551 262 601 289 647 L 311 647 Z M 298 537 C 290 522 282 504 272 483 C 262 461 251 437 240 411 C 229 385 218 357 206 327 C 194 297 183 266 173 234 L 424 234 C 412 266 401 297 390 327 C 378 357 367 385 356 411 C 345 437 335 461 325 483 C 315 504 307 522 300 537 L 298 537 Z" unicode="A" />
<glyph horiz-adv-x="505" d="M 226 638 C 248 638 269 634 290 627 C 310 619 329 609 345 596 C 361 582 373 566 383 546 C 392 526 397 504 397 480 C 397 454 390 430 378 408 C 365 386 348 370 327 361 C 345 357 362 349 378 339 C 394 329 409 316 422 301 C 434 286 444 269 452 250 C 459 231 463 211 463 190 C 463 160 457 133 446 109 C 434 85 419 66 401 50 C 382 34 361 21 337 13 C 313 4 288 0 262 0 L 69 0 L 69 638 L 226 638 Z M 250 56 C 269 56 287 59 305 65 C 323 71 338 79 352 91 C 365 102 376 116 384 133 C 392 149 396 168 396 190 C 396 210 392 229 384 246 C 376 262 365 276 351 288 C 337 300 321 309 303 315 C 285 321 265 324 245 324 L 133 324 L 133 56 L 250 56 Z M 219 379 C 249 379 275 387 297 405 C 319 422 330 447 330 480 C 330 512 318 537 296 555 C 274 573 247 582 216 582 L 133 582 L 133 379 L 219 379 Z" unicode="B" />
<glyph horiz-adv-x="604" d="M 42 319 C 42 369 51 415 70 455 C 89 495 114 530 145 558 C 176 586 212 607 252 622 C 292 636 334 644 376 644 C 416 644 451 639 483 631 C 515 623 541 613 562 602 L 548 542 C 530 552 507 562 477 571 C 447 579 416 584 382 584 C 346 584 312 578 279 566 C 246 554 217 536 192 513 C 167 490 147 462 132 429 C 117 396 110 359 110 318 C 110 276 117 239 132 207 C 146 174 166 146 191 123 C 216 100 245 82 278 70 C 311 58 346 52 382 52 C 418 52 450 55 478 62 C 506 69 530 79 552 92 L 545 29 C 525 17 502 9 475 3 C 448 -3 415 -6 376 -6 C 333 -6 292 1 252 16 C 212 31 176 53 145 81 C 114 109 89 143 70 183 C 51 223 42 268 42 319 Z" unicode="C" />
<glyph horiz-adv-x="632" d="M 236 638 C 284 638 329 630 372 616 C 415 602 453 581 485 554 C 517 527 543 494 562 454 C 580 414 590 369 590 319 C 590 268 580 223 562 183 C 543 143 517 110 485 83 C 453 56 415 35 372 21 C 329 7 284 0 236 0 L 69 0 L 69 638 L 236 638 Z M 226 57 C 268 57 307 62 343 74 C 379 85 410 102 436 124 C 462 146 483 173 498 205 C 513 237 521 275 521 318 C 521 360 513 398 498 431 C 483 463 462 491 436 513 C 410 535 379 551 343 563 C 307 574 268 580 226 580 L 137 580 L 137 57 L 226 57 Z" unicode="D" />
<glyph horiz-adv-x="444" d="M 402 638 L 402 580 L 136 580 L 136 350 L 354 350 L 354 292 L 136 292 L 136 58 L 437 58 L 437 0 L 69 0 L 69 638 L 402 638 Z" unicode="E" />
<glyph horiz-adv-x="415" d="M 408 638 L 408 580 L 136 580 L 136 350 L 368 350 L 368 292 L 136 292 L 136 0 L 69 0 L 69 638 L 408 638 Z" unicode="F" />
<glyph horiz-adv-x="676" d="M 42 319 C 42 371 51 417 71 458 C 90 498 115 533 147 561 C 178 589 214 611 255 626 C 295 641 337 649 380 649 C 422 649 460 644 494 636 C 528 627 557 615 581 600 L 567 540 C 543 554 516 566 485 575 C 453 584 421 589 387 589 C 351 589 316 582 282 570 C 248 558 219 540 194 516 C 168 492 148 464 133 430 C 117 396 110 359 110 317 C 110 275 117 237 133 204 C 148 170 168 142 194 119 C 219 95 248 77 282 65 C 316 53 351 47 388 47 C 424 47 455 50 483 58 C 511 66 534 76 553 89 L 553 255 L 384 255 L 384 310 L 617 310 L 617 58 C 557 12 479 -11 384 -11 C 339 -11 296 -3 255 12 C 214 27 178 49 146 77 C 114 105 89 140 70 181 C 51 221 42 267 42 319 Z" unicode="G" />
<glyph horiz-adv-x="638" d="M 136 638 L 136 350 L 502 350 L 502 638 L 569 638 L 569 0 L 502 0 L 502 292 L 136 292 L 136 0 L 69 0 L 69 638 L 136 638 Z" unicode="H" />
<glyph horiz-adv-x="225" d="M 146 638 L 146 0 L 79 0 L 79 638 L 146 638 Z" unicode="I" />
<glyph horiz-adv-x="225" d="M -80 -79 C -28 -68 10 -45 38 -11 C 65 23 79 72 79 136 L 79 638 L 146 638 L 146 129 C 146 91 141 57 131 28 C 121 -1 107 -26 90 -47 C 73 -68 54 -85 32 -98 C 10 -110 -12 -119 -36 -124 L -80 -79 Z" unicode="J" />
<glyph horiz-adv-x="518" d="M 136 638 L 136 339 L 137 339 C 157 357 178 377 201 400 C 224 423 247 448 271 474 C 294 500 317 526 339 554 C 361 582 381 610 399 638 L 476 638 C 456 608 435 579 412 550 C 389 520 365 492 341 464 C 317 436 293 411 269 387 C 245 363 224 343 205 327 L 505 0 L 417 0 L 137 306 L 136 306 L 136 0 L 69 0 L 69 638 L 136 638 Z" unicode="K" />
<glyph horiz-adv-x="440" d="M 136 638 L 136 58 L 433 58 L 433 0 L 69 0 L 69 638 L 136 638 Z" unicode="L" />
<glyph horiz-adv-x="739" d="M 171 638 C 187 620 204 597 224 569 C 244 541 263 510 282 478 C 300 446 317 414 333 382 C 349 350 361 321 369 297 L 371 297 C 379 321 390 350 406 382 C 421 414 438 446 457 478 C 475 510 494 541 514 569 C 534 597 552 620 568 638 L 615 638 C 624 602 633 558 641 508 C 649 457 657 403 663 346 C 669 288 674 230 678 170 C 682 110 684 54 684 0 L 618 0 C 618 35 616 76 614 124 C 612 171 608 219 604 269 C 600 319 595 367 589 413 C 583 459 577 499 571 533 L 569 533 C 556 520 541 500 524 472 C 507 444 490 414 474 382 C 458 349 443 317 430 285 C 416 253 407 227 401 207 L 337 207 C 331 227 321 253 307 285 C 293 316 278 348 262 380 C 245 412 228 442 212 470 C 195 498 181 519 169 533 L 167 533 C 160 499 154 459 148 413 C 142 367 138 319 134 269 C 130 219 126 171 124 124 C 122 76 121 35 121 0 L 55 0 C 55 54 56 110 60 170 C 64 230 69 288 75 346 C 81 403 89 457 97 508 C 105 558 114 602 124 638 L 171 638 Z" unicode="M" />
<glyph horiz-adv-x="692" d="M 116 638 C 142 616 169 590 199 560 C 229 530 259 499 289 467 C 319 435 348 402 376 368 C 404 334 431 302 455 272 C 479 242 499 214 517 189 C 534 164 547 144 556 129 L 558 130 C 557 139 557 149 557 160 C 557 170 556 183 556 199 C 556 215 556 234 556 257 C 556 280 556 309 556 344 C 556 378 556 419 556 467 C 556 515 556 572 556 638 L 623 638 L 623 0 L 571 0 C 543 43 513 87 481 132 C 449 177 414 222 377 267 C 340 312 301 357 261 401 C 220 445 178 487 136 529 L 134 528 C 134 518 135 507 135 496 C 135 485 135 472 135 456 C 135 440 136 420 136 396 C 136 372 136 342 136 306 C 136 270 136 227 136 177 C 136 127 136 68 136 0 L 69 0 L 69 638 L 116 638 Z" unicode="N" />
<glyph horiz-adv-x="752" d="M 42 320 C 42 369 51 414 69 454 C 87 494 112 529 143 558 C 173 587 209 609 249 625 C 289 641 332 649 376 649 C 420 649 462 641 502 625 C 542 609 578 587 609 558 C 639 529 664 494 682 454 C 700 414 710 369 710 320 C 710 270 700 225 682 185 C 664 144 639 109 609 80 C 578 51 542 29 502 13 C 462 -3 420 -11 376 -11 C 332 -11 289 -3 249 13 C 209 29 173 51 143 80 C 112 109 87 144 69 185 C 51 225 42 270 42 320 Z M 642 318 C 642 358 634 395 620 429 C 605 463 585 491 561 515 C 536 538 508 556 476 569 C 444 582 410 589 376 589 C 340 589 307 582 275 569 C 243 556 214 538 190 515 C 166 491 146 463 132 429 C 117 395 110 358 110 318 C 110 276 117 239 132 206 C 146 172 166 144 190 121 C 214 97 243 79 275 66 C 307 53 340 47 376 47 C 410 47 444 53 476 66 C 508 79 536 97 561 121 C 585 144 605 172 620 206 C 634 239 642 276 642 318 Z" unicode="O" />
<glyph horiz-adv-x="479" d="M 255 638 C 279 638 302 634 325 626 C 347 618 367 607 385 592 C 402 577 416 559 426 538 C 436 516 442 492 442 465 C 442 437 436 413 426 392 C 416 370 402 352 385 337 C 368 322 348 311 326 303 C 304 295 281 292 257 292 L 136 292 L 136 0 L 69 0 L 69 638 L 255 638 Z M 246 349 C 263 349 279 351 295 356 C 310 361 323 369 335 379 C 347 389 356 401 363 415 C 370 429 374 446 374 464 C 374 482 370 498 363 512 C 356 526 347 538 335 548 C 323 558 309 565 293 571 C 277 576 261 579 244 579 L 136 579 L 136 349 L 246 349 Z" unicode="P" />
<glyph horiz-adv-x="752" d="M 157 67 C 122 96 94 132 73 175 C 52 217 42 266 42 320 C 42 369 51 414 69 454 C 87 494 112 529 143 558 C 173 587 209 609 249 625 C 289 641 332 649 376 649 C 420 649 462 641 502 625 C 542 609 578 587 609 558 C 639 529 664 494 682 454 C 700 414 710 369 710 320 C 710 277 702 236 688 198 C 673 160 652 126 624 97 C 596 67 563 44 523 26 C 483 8 439 -1 390 -3 L 390 -5 C 424 -20 471 -32 531 -41 C 590 -49 663 -54 749 -54 L 704 -117 C 654 -117 605 -113 555 -105 C 505 -97 457 -85 410 -69 C 362 -53 317 -34 274 -11 C 231 11 192 37 157 67 Z M 642 318 C 642 358 634 395 620 429 C 605 463 585 491 561 515 C 536 538 508 556 476 569 C 444 582 410 589 376 589 C 340 589 307 582 275 569 C 243 556 214 538 190 515 C 166 491 146 463 132 429 C 117 395 110 358 110 318 C 110 276 117 239 132 206 C 146 172 166 144 190 121 C 214 97 243 79 275 66 C 307 53 340 47 376 47 C 410 47 444 53 476 66 C 508 79 536 97 561 121 C 585 144 605 172 620 206 C 634 239 642 276 642 318 Z" unicode="Q" />
<glyph horiz-adv-x="505" d="M 245 638 C 269 638 292 634 315 626 C 337 618 357 607 375 592 C 392 577 406 559 416 538 C 426 516 432 492 432 465 C 432 423 420 387 396 359 C 372 331 343 312 307 302 C 324 288 342 271 360 250 C 378 229 397 205 416 179 C 434 153 452 124 470 94 C 488 64 505 32 521 0 L 444 0 C 414 63 381 119 345 169 C 308 219 269 260 229 292 L 136 292 L 136 0 L 69 0 L 69 638 L 245 638 Z M 236 349 C 253 349 269 351 285 356 C 300 361 313 369 325 379 C 337 389 346 401 353 415 C 360 429 364 446 364 464 C 364 482 360 498 353 512 C 346 526 337 538 325 548 C 313 558 299 565 283 571 C 267 576 251 579 234 579 L 136 579 L 136 349 L 236 349 Z" unicode="R" />
<glyph horiz-adv-x="468" d="M 46 116 C 69 97 95 82 125 70 C 155 58 188 53 225 53 C 264 53 296 63 321 84 C 346 105 359 133 359 168 C 359 202 348 229 328 249 C 308 269 276 288 232 304 C 175 324 133 348 107 376 C 80 404 67 441 67 485 C 67 505 70 524 78 543 C 85 562 96 579 112 594 C 127 609 146 621 170 630 C 193 639 221 644 253 644 C 282 644 308 640 332 632 C 355 624 373 616 387 608 L 372 551 C 360 560 342 568 320 576 C 298 584 275 588 251 588 C 231 588 214 585 199 579 C 184 573 172 566 162 557 C 152 547 144 537 139 525 C 133 513 131 501 131 489 C 131 461 140 438 158 420 C 176 402 206 385 246 371 C 274 361 299 350 321 338 C 343 326 362 312 378 296 C 393 280 405 263 413 243 C 421 223 426 199 426 173 C 426 145 421 121 411 99 C 401 77 388 59 370 43 C 352 27 331 15 306 7 C 281 0 253 -5 222 -5 C 185 -5 152 0 124 9 C 95 19 72 30 55 43 L 46 116 Z" unicode="S" />
<glyph horiz-adv-x="520" d="M 7 580 L 7 638 L 513 638 L 513 580 L 293 580 L 293 0 L 226 0 L 226 580 L 7 580 Z" unicode="T" />
<glyph horiz-adv-x="636" d="M 69 638 L 136 638 L 136 227 C 136 171 152 127 184 96 C 216 64 261 49 319 49 C 377 49 422 64 454 96 C 486 127 502 171 502 227 L 502 638 L 567 638 L 567 221 C 567 185 561 152 549 124 C 537 95 520 71 498 51 C 476 31 449 15 419 5 C 388 -5 354 -11 318 -11 C 280 -11 246 -5 216 5 C 186 15 160 31 138 51 C 116 71 99 95 87 124 C 75 152 69 185 69 221 L 69 638 Z" unicode="U" />
<glyph horiz-adv-x="584" d="M 103 638 C 112 588 125 536 142 483 C 158 429 176 378 194 329 C 212 280 230 235 248 195 C 265 155 280 123 292 101 L 294 101 C 306 123 320 155 338 195 C 356 235 374 280 392 329 C 410 378 428 429 444 483 C 460 536 474 588 484 638 L 548 638 C 538 588 525 534 509 478 C 492 421 473 364 451 307 C 429 249 406 193 381 139 C 355 84 329 34 303 -11 L 281 -11 C 255 34 229 84 203 139 C 177 193 153 249 131 307 C 109 364 89 421 73 478 C 56 534 44 588 36 638 L 103 638 Z" unicode="V" />
<glyph horiz-adv-x="896" d="M 90 638 C 96 592 106 544 120 493 C 133 442 147 393 163 346 C 179 298 194 255 210 215 C 225 175 239 144 251 122 L 253 122 C 263 144 275 173 289 209 C 302 245 316 285 331 329 C 346 373 361 422 377 474 C 393 526 408 581 422 638 L 481 638 C 496 581 511 526 527 474 C 542 422 557 373 572 329 C 586 285 600 245 613 210 C 626 174 638 145 649 122 L 651 122 C 659 137 668 157 678 181 C 688 205 699 232 710 262 C 721 292 732 323 743 357 C 753 391 763 424 773 457 C 782 490 790 522 797 553 C 803 584 808 612 812 638 L 874 638 C 868 590 858 537 844 480 C 830 423 813 365 793 307 C 773 249 752 192 729 137 C 705 82 682 33 658 -11 L 635 -11 C 612 37 591 86 572 136 C 553 185 536 233 521 279 C 505 325 492 369 481 411 C 469 452 460 489 452 523 L 450 523 C 443 489 434 452 422 411 C 410 369 395 325 379 279 C 363 233 344 185 324 136 C 304 86 282 37 260 -11 L 237 -11 C 213 37 189 90 167 147 C 145 203 124 260 105 318 C 86 376 69 432 55 487 C 41 542 30 592 22 638 L 90 638 Z" unicode="W" />
<glyph horiz-adv-x="577" d="M 248 325 C 179 411 114 515 52 638 L 129 638 C 153 590 178 544 205 501 C 231 457 259 416 289 377 L 291 377 C 353 459 407 546 453 638 L 525 638 C 495 579 463 524 431 473 C 399 422 365 374 329 329 C 363 286 398 236 434 179 C 470 121 503 62 535 0 L 458 0 C 434 48 407 96 377 144 C 347 192 317 236 288 276 L 286 276 C 254 234 224 189 194 141 C 164 93 137 46 114 0 L 42 0 C 72 58 104 116 140 172 C 176 228 212 279 248 325 Z" unicode="X" />
<glyph horiz-adv-x="606" d="M 269 295 C 224 346 181 400 141 457 C 101 514 62 574 26 638 L 101 638 C 129 589 159 540 193 492 C 227 444 264 395 304 347 L 306 347 C 384 441 452 538 510 638 L 580 638 C 543 572 505 512 465 456 C 425 400 381 346 335 295 L 335 0 L 269 0 L 269 295 Z" unicode="Y" />
<glyph horiz-adv-x="521" d="M 261 391 C 279 423 298 455 318 488 C 338 521 356 551 374 578 L 373 580 L 67 580 L 67 638 L 467 638 L 467 621 L 246 245 C 228 213 209 182 189 150 C 169 118 151 88 134 60 L 135 58 L 479 58 L 479 0 L 42 0 L 42 17 L 261 391 Z" unicode="Z" />
<glyph horiz-adv-x="273" d="M 266 700 L 266 646 L 132 646 L 132 -164 L 266 -164 L 266 -218 L 69 -218 L 69 700 L 266 700 Z" unicode="[" />
<glyph horiz-adv-x="459" d="M 94 664 L 501 -134 L 453 -159 L 46 639 L 94 664 Z" unicode="\" />
<glyph horiz-adv-x="273" d="M 141 -164 L 141 646 L 7 646 L 7 700 L 204 700 L 204 -218 L 7 -218 L 7 -164 L 141 -164 Z" unicode="]" />
<glyph horiz-adv-x="500" d="M 95 533 C 117 550 141 571 165 597 C 189 622 210 647 227 671 C 230 675 234 678 238 681 C 242 684 246 686 250 686 C 253 686 257 684 261 681 C 265 678 269 675 273 671 C 289 647 310 622 334 597 C 358 572 382 551 405 534 L 362 515 C 342 528 322 542 302 557 C 282 572 263 588 247 605 C 230 588 212 572 193 557 C 174 542 155 528 135 515 L 95 533 Z" unicode="^" />
<glyph horiz-adv-x="500" d="M 502 -176 L 502 -231 L -1 -231 L -1 -176 L 502 -176 Z" unicode="_" />
<glyph horiz-adv-x="437" d="M 37 123 C 37 145 41 164 49 181 C 57 197 67 211 81 223 C 95 235 110 244 128 251 C 146 257 164 262 184 264 L 303 275 L 303 318 C 303 346 293 368 275 384 C 256 400 230 408 196 408 C 173 408 151 404 130 398 C 108 392 90 384 76 374 L 63 427 C 80 439 100 448 123 454 C 146 460 171 463 199 463 C 223 463 245 459 266 453 C 286 446 304 436 319 424 C 334 411 346 395 354 376 C 362 357 367 336 367 312 L 367 105 C 367 82 372 65 384 53 C 395 41 408 33 423 31 L 382 -10 C 366 -6 351 1 336 15 C 321 28 313 46 311 70 C 302 44 286 24 262 10 C 238 -3 211 -10 182 -10 C 160 -10 140 -6 122 0 C 104 7 89 17 77 29 C 64 41 54 55 47 71 C 40 87 37 104 37 123 Z M 303 222 L 196 212 C 164 208 139 199 123 183 C 106 167 98 147 98 123 C 98 100 106 81 123 66 C 139 51 161 44 187 44 C 201 44 215 46 229 52 C 243 57 255 65 266 75 C 277 85 286 97 293 112 C 299 126 303 143 303 161 L 303 222 Z" unicode="a" />
<glyph horiz-adv-x="529" d="M 64 712 L 127 712 L 127 419 C 138 430 156 440 181 449 C 205 458 232 463 261 463 C 294 463 325 457 353 445 C 381 433 406 417 426 396 C 446 375 462 350 474 322 C 486 293 492 262 492 228 C 492 193 486 161 474 132 C 462 103 446 78 425 57 C 403 36 378 20 348 8 C 318 -4 284 -10 248 -10 C 209 -10 173 -4 141 6 C 108 17 82 29 64 43 L 64 712 Z M 428 227 C 428 253 423 276 415 298 C 406 320 394 339 379 355 C 363 371 345 383 324 392 C 303 401 280 406 256 406 C 224 406 197 400 175 389 C 153 377 137 366 127 356 L 127 75 C 138 67 154 60 176 54 C 197 48 219 45 242 45 C 270 45 295 49 318 58 C 341 67 361 80 377 96 C 393 112 405 131 414 153 C 423 175 428 200 428 227 Z" unicode="b" />
<glyph horiz-adv-x="453" d="M 37 226 C 37 261 43 293 56 322 C 68 350 85 375 107 395 C 129 415 154 431 183 442 C 212 453 243 459 276 459 C 304 459 330 455 354 449 C 378 442 398 434 416 424 L 403 365 C 367 389 325 402 279 402 C 253 402 230 397 208 389 C 186 380 168 368 152 352 C 136 336 123 318 114 296 C 105 274 101 251 101 225 C 101 199 105 175 115 154 C 124 132 137 114 153 98 C 169 82 188 70 210 62 C 232 53 255 49 281 49 C 304 49 325 51 345 55 C 365 59 384 67 404 79 L 396 18 C 380 10 362 4 342 0 C 321 -4 299 -6 276 -6 C 244 -6 213 0 184 10 C 155 21 130 37 108 57 C 86 77 68 101 56 130 C 43 158 37 190 37 226 Z" unicode="c" />
<glyph horiz-adv-x="531" d="M 37 226 C 37 260 42 292 54 321 C 66 350 82 375 103 396 C 123 417 148 433 176 445 C 204 457 235 463 269 463 C 298 463 325 458 349 448 C 373 438 391 428 403 416 L 403 712 L 467 712 L 467 0 L 406 0 L 406 50 L 405 50 C 393 34 376 20 352 8 C 328 -3 299 -10 263 -10 C 234 -10 206 -4 179 6 C 152 16 128 32 107 52 C 86 72 69 97 56 126 C 43 155 37 188 37 226 Z M 403 353 C 391 365 375 376 354 388 C 332 400 306 406 275 406 C 250 406 227 401 206 392 C 185 383 167 371 151 355 C 135 339 123 320 114 298 C 105 276 101 251 101 225 C 101 198 105 174 114 152 C 123 130 135 111 151 95 C 167 79 185 66 206 58 C 227 49 250 45 275 45 C 305 45 331 51 353 63 C 375 75 391 89 403 105 L 403 353 Z" unicode="d" />
<glyph horiz-adv-x="486" d="M 37 226 C 37 262 43 295 56 324 C 68 353 85 378 106 399 C 126 419 150 435 176 446 C 202 457 228 463 256 463 C 286 463 314 458 338 448 C 362 438 382 424 399 408 C 415 392 428 373 436 352 C 444 331 449 310 449 288 C 449 282 449 277 449 272 C 449 266 448 261 447 257 L 409 220 L 103 220 C 102 198 105 177 113 157 C 121 136 132 117 148 101 C 164 85 183 71 206 61 C 228 51 254 46 283 46 C 311 46 335 49 357 56 C 379 63 398 72 415 84 L 407 21 C 391 11 373 4 352 -1 C 331 -7 306 -10 276 -10 C 243 -10 212 -4 183 7 C 154 19 129 35 107 56 C 85 76 68 101 56 130 C 43 159 37 191 37 226 Z M 384 272 C 384 274 385 276 385 279 C 385 281 385 284 385 287 C 385 301 382 316 377 330 C 371 344 363 357 353 369 C 342 380 329 389 313 397 C 297 404 279 408 259 408 C 240 408 222 404 205 396 C 187 388 172 378 159 366 C 145 354 134 339 125 323 C 115 307 109 290 107 272 L 384 272 Z" unicode="e" />
<glyph horiz-adv-x="333" d="M 17 401 L 17 453 L 97 453 L 97 523 C 97 555 101 582 110 606 C 119 630 132 649 148 665 C 164 681 184 692 207 700 C 230 708 255 712 283 712 C 299 712 315 711 329 709 C 343 707 355 703 366 699 L 352 645 C 342 649 332 652 320 654 C 308 656 296 658 286 658 C 248 658 217 646 195 624 C 172 602 161 567 161 520 L 161 453 L 314 453 L 301 401 L 161 401 L 161 0 L 97 0 L 97 401 L 17 401 Z" unicode="f" />
<glyph horiz-adv-x="459" d="M 31 -75 C 31 -54 34 -36 40 -20 C 46 -4 53 9 63 21 C 73 33 84 42 96 49 C 108 56 121 61 134 63 L 88 109 C 88 126 93 142 104 156 C 114 170 131 179 155 183 C 131 191 110 207 92 229 C 74 251 65 279 65 313 C 65 335 69 355 77 373 C 85 391 97 407 112 421 C 126 434 144 444 164 452 C 184 459 207 463 231 463 C 253 463 273 460 289 455 C 307 449 326 447 348 447 C 360 447 373 448 385 451 C 397 454 408 458 417 464 L 430 412 C 422 407 411 403 397 400 C 383 397 370 396 359 398 C 368 390 376 378 384 364 C 392 349 396 332 396 313 C 396 293 392 273 384 255 C 376 237 365 221 351 207 C 337 193 319 182 299 174 C 279 166 256 162 231 162 C 180 162 155 150 155 127 C 155 121 158 115 164 109 C 170 103 178 99 188 96 L 310 55 C 348 41 378 24 399 2 C 420 -19 431 -49 431 -87 C 431 -107 426 -125 416 -143 C 406 -161 393 -176 375 -189 C 357 -202 336 -212 312 -220 C 288 -227 261 -231 232 -231 C 202 -231 174 -227 150 -219 C 125 -211 104 -200 86 -186 C 68 -172 55 -155 45 -136 C 35 -117 31 -97 31 -75 Z M 371 -86 C 371 -64 363 -46 349 -32 C 335 -18 315 -7 290 1 L 190 32 C 176 32 162 29 150 23 C 138 17 127 10 118 1 C 109 -8 102 -19 97 -32 C 92 -45 90 -59 90 -74 C 90 -87 93 -100 99 -112 C 105 -124 115 -135 127 -145 C 139 -155 153 -162 171 -168 C 188 -174 208 -177 231 -177 C 253 -177 272 -174 290 -169 C 307 -163 322 -156 334 -148 C 346 -139 355 -129 361 -119 C 367 -108 371 -97 371 -86 Z M 337 313 C 337 326 334 339 329 351 C 323 363 316 373 306 382 C 296 391 285 398 272 403 C 259 408 245 411 231 411 C 199 411 173 401 153 382 C 133 363 123 340 123 313 C 123 285 133 261 153 243 C 173 224 199 215 231 215 C 260 215 285 224 306 243 C 326 261 337 285 337 313 Z" unicode="g" />
<glyph horiz-adv-x="503" d="M 127 712 L 127 392 L 128 392 C 136 411 151 428 175 442 C 199 456 231 463 271 463 C 295 463 318 459 340 452 C 361 444 379 434 395 421 C 410 407 422 391 431 371 C 439 351 444 329 444 305 L 444 0 L 381 0 L 381 299 C 381 331 370 357 348 377 C 326 397 296 408 256 408 C 216 408 184 397 161 377 C 138 357 127 331 127 299 L 127 0 L 64 0 L 64 712 L 127 712 Z" unicode="h" />
<glyph horiz-adv-x="206" d="M 59 587 C 59 599 63 609 72 618 C 80 626 91 631 103 631 C 115 631 126 626 134 618 C 142 609 147 599 147 587 C 147 575 142 564 134 556 C 126 547 115 543 103 543 C 91 543 80 547 72 556 C 63 564 59 575 59 587 Z M 135 453 L 135 0 L 71 0 L 71 453 L 135 453 Z" unicode="i" />
<glyph horiz-adv-x="206" d="M 59 587 C 59 599 63 609 72 618 C 80 626 91 631 103 631 C 115 631 126 626 134 618 C 142 609 147 599 147 587 C 147 575 142 564 134 556 C 126 547 115 543 103 543 C 91 543 80 547 72 556 C 63 564 59 575 59 587 Z M -28 -190 C 4 -182 28 -167 45 -144 C 62 -120 71 -88 71 -47 L 71 453 L 135 453 L 135 -52 C 135 -76 131 -98 125 -118 C 118 -138 109 -155 98 -171 C 87 -186 74 -199 60 -209 C 45 -219 29 -226 13 -230 L -28 -190 Z" unicode="j" />
<glyph horiz-adv-x="431" d="M 127 712 L 127 241 L 128 241 C 144 252 162 266 182 284 C 202 301 221 319 241 339 C 260 359 278 378 295 398 C 312 418 326 436 337 453 L 413 453 C 401 435 386 415 368 394 C 350 373 332 352 312 332 C 292 312 273 293 253 275 C 233 257 216 242 200 231 L 424 0 L 341 0 L 128 220 L 127 220 L 127 0 L 64 0 L 64 712 L 127 712 Z" unicode="k" />
<glyph horiz-adv-x="210" d="M 64 712 L 127 712 L 127 106 C 127 84 132 67 144 53 C 156 39 169 31 185 28 L 142 -15 C 133 -12 124 -8 115 -3 C 105 2 97 9 90 18 C 82 27 76 38 71 52 C 66 65 64 81 64 99 L 64 712 Z" unicode="l" />
<glyph horiz-adv-x="765" d="M 118 453 L 118 392 L 119 392 C 126 411 140 428 162 442 C 184 456 215 463 255 463 C 285 463 313 456 338 444 C 363 431 381 412 393 386 C 401 407 419 425 445 440 C 471 455 502 463 540 463 C 590 463 630 449 660 423 C 690 397 706 360 706 312 L 706 0 L 643 0 L 643 307 C 643 337 634 361 617 380 C 599 398 571 408 531 408 C 491 408 462 398 443 380 C 423 361 414 337 414 307 L 414 0 L 351 0 L 351 307 C 351 337 342 361 325 380 C 308 398 280 408 240 408 C 200 408 171 398 151 380 C 131 361 122 337 122 307 L 122 0 L 59 0 L 59 453 L 118 453 Z" unicode="m" />
<glyph horiz-adv-x="498" d="M 118 453 L 118 385 L 119 385 C 126 406 141 424 165 440 C 189 455 222 463 266 463 C 290 463 313 459 334 452 C 355 444 373 434 389 421 C 405 407 417 391 426 371 C 434 351 439 329 439 305 L 439 0 L 376 0 L 376 299 C 376 331 365 357 343 377 C 321 397 291 408 251 408 C 211 408 179 397 156 377 C 133 357 122 331 122 299 L 122 0 L 59 0 L 59 453 L 118 453 Z" unicode="n" />
<glyph horiz-adv-x="551" d="M 37 226 C 37 260 43 292 55 321 C 67 350 84 375 106 396 C 127 417 152 433 181 445 C 210 457 242 463 276 463 C 310 463 341 457 370 445 C 399 433 424 417 446 396 C 467 375 484 350 496 321 C 508 292 514 260 514 226 C 514 191 508 159 496 131 C 484 102 467 77 446 56 C 424 35 399 19 370 7 C 341 -4 310 -10 276 -10 C 242 -10 210 -4 181 7 C 152 19 127 35 106 56 C 84 77 67 102 55 131 C 43 159 37 191 37 226 Z M 450 225 C 450 251 445 276 436 298 C 427 320 415 339 399 355 C 383 371 365 383 344 392 C 322 401 300 406 276 406 C 252 406 229 401 208 392 C 186 383 168 371 152 355 C 136 339 123 320 114 298 C 105 276 101 251 101 225 C 101 198 105 174 114 152 C 123 130 136 111 152 95 C 168 79 186 66 208 58 C 229 49 252 45 276 45 C 300 45 322 49 344 58 C 365 66 383 79 399 95 C 415 111 427 130 436 152 C 445 174 450 198 450 225 Z" unicode="o" />
<glyph horiz-adv-x="526" d="M 119 453 L 119 403 L 120 403 C 131 418 149 432 173 444 C 197 456 227 463 263 463 C 291 463 319 457 346 447 C 373 436 397 420 418 400 C 439 380 456 355 469 326 C 482 296 489 263 489 227 C 489 192 483 160 471 131 C 459 102 443 77 422 56 C 401 35 376 19 348 7 C 320 -4 289 -10 256 -10 C 226 -10 199 -5 175 4 C 151 14 133 25 122 37 L 122 -231 L 59 -231 L 59 453 L 119 453 Z M 425 225 C 425 251 420 276 411 298 C 402 320 390 339 374 355 C 358 371 340 383 319 392 C 298 401 275 406 251 406 C 221 406 194 399 172 387 C 150 374 133 360 122 345 L 122 98 C 133 86 149 74 171 62 C 193 50 219 45 251 45 C 275 45 298 49 319 58 C 340 66 358 79 374 95 C 390 111 402 130 411 152 C 420 174 425 198 425 225 Z" unicode="p" />
<glyph horiz-adv-x="524" d="M 401 34 C 390 22 373 12 350 3 C 326 -5 300 -10 271 -10 C 237 -10 206 -4 178 7 C 150 19 125 35 104 56 C 83 77 67 102 55 131 C 43 159 37 191 37 225 C 37 259 42 291 54 320 C 66 349 82 374 103 395 C 124 416 149 433 179 445 C 209 457 241 463 277 463 C 311 463 340 458 363 450 C 385 441 403 433 417 425 L 446 459 L 465 459 L 465 -231 L 401 -231 L 401 34 Z M 401 367 C 395 371 388 375 380 380 C 371 384 361 389 351 393 C 340 397 329 400 317 402 C 305 404 294 406 283 406 C 256 406 231 401 209 392 C 187 383 168 371 152 355 C 136 339 123 319 114 297 C 105 274 101 249 101 223 C 101 197 105 173 114 151 C 123 129 136 111 152 95 C 168 79 186 67 208 58 C 229 49 252 45 277 45 C 309 45 335 50 356 62 C 376 73 391 84 401 95 L 401 367 Z" unicode="q" />
<glyph horiz-adv-x="316" d="M 122 453 L 122 350 L 123 350 C 130 382 146 408 170 428 C 194 448 225 459 263 459 C 269 459 276 458 285 457 C 293 456 300 455 306 453 L 291 388 C 287 389 281 390 275 391 C 269 391 262 392 256 392 C 238 392 221 389 205 383 C 189 377 174 367 162 355 C 150 342 140 325 133 305 C 125 284 122 259 122 231 L 122 0 L 59 0 L 59 453 L 122 453 Z" unicode="r" />
<glyph horiz-adv-x="365" d="M 41 100 C 58 85 78 73 101 63 C 123 53 148 49 176 49 C 201 49 222 55 239 67 C 256 79 265 97 265 119 C 265 139 257 156 242 169 C 227 181 207 192 182 202 C 140 216 108 234 86 255 C 64 275 53 303 53 339 C 53 375 66 403 92 425 C 118 447 151 458 191 458 C 215 458 237 454 257 448 C 277 442 291 435 301 429 L 287 375 C 277 382 263 389 247 395 C 231 401 212 405 190 405 C 168 405 150 399 136 387 C 122 375 115 360 115 341 C 115 321 121 305 134 295 C 147 284 166 274 192 265 C 234 249 268 231 292 209 C 316 187 328 158 328 120 C 328 82 314 52 287 29 C 259 6 222 -5 175 -5 C 147 -5 123 -1 103 4 C 83 10 65 19 50 31 L 41 100 Z" unicode="s" />
<glyph horiz-adv-x="350" d="M 107 401 L 17 401 L 17 453 L 107 453 L 107 551 L 169 584 L 169 453 L 335 453 L 323 401 L 169 401 L 169 121 C 169 94 175 75 189 64 C 202 53 220 48 242 48 C 260 48 276 51 288 57 L 281 5 C 275 1 267 0 258 -2 C 249 -3 240 -4 231 -4 C 196 -4 167 6 143 26 C 119 46 107 76 107 116 L 107 401 Z" unicode="t" />
<glyph horiz-adv-x="498" d="M 59 453 L 122 453 L 122 154 C 122 122 132 95 154 75 C 176 55 207 45 247 45 C 287 45 318 55 341 75 C 364 95 376 122 376 154 L 376 453 L 439 453 L 439 0 L 380 0 L 380 68 L 379 68 C 371 46 356 28 332 13 C 308 -2 275 -10 232 -10 C 207 -10 184 -6 163 1 C 142 8 124 18 108 32 C 92 45 80 61 72 81 C 63 101 59 123 59 148 L 59 453 Z" unicode="u" />
<glyph horiz-adv-x="460" d="M 90 453 C 112 380 134 315 158 257 C 182 199 206 143 232 89 L 234 89 C 258 143 282 201 306 263 C 330 324 352 387 374 453 L 434 453 C 410 377 382 300 349 222 C 315 144 280 66 242 -10 L 217 -10 C 177 67 141 144 109 221 C 77 298 50 375 26 453 L 90 453 Z" unicode="v" />
<glyph horiz-adv-x="704" d="M 87 453 C 104 392 122 332 142 273 C 162 214 183 156 207 100 L 209 100 C 231 158 253 216 273 276 C 293 335 311 394 329 453 L 377 453 C 394 395 413 337 433 278 C 453 218 475 159 498 100 L 500 100 C 522 157 544 215 564 275 C 584 334 602 393 620 453 L 678 453 C 656 376 630 299 602 223 C 574 146 543 68 509 -10 L 486 -10 C 460 51 436 112 414 172 C 392 232 371 295 353 360 L 351 360 C 332 296 311 233 289 173 C 267 113 243 52 218 -10 L 195 -10 C 160 66 128 143 100 220 C 72 297 47 375 26 453 L 87 453 Z" unicode="w" />
<glyph horiz-adv-x="438" d="M 184 231 C 161 260 138 293 115 330 C 91 366 68 407 45 453 L 113 453 C 145 389 180 332 218 282 L 220 282 C 258 334 293 391 325 453 L 393 453 C 347 366 300 293 254 233 C 276 203 301 168 327 128 C 353 88 377 45 401 0 L 333 0 C 316 32 298 64 278 96 C 258 128 239 156 221 182 L 219 182 C 199 155 179 126 159 94 C 139 62 121 30 105 0 L 37 0 C 60 44 84 86 110 126 C 136 166 160 201 184 231 Z" unicode="x" />
<glyph horiz-adv-x="468" d="M 1 -192 C 21 -184 40 -174 58 -163 C 76 -151 93 -138 110 -122 C 126 -106 142 -88 158 -66 C 174 -44 190 -19 206 10 C 168 84 134 158 105 232 C 75 305 49 379 26 453 L 90 453 C 112 380 135 313 161 251 C 187 189 212 131 238 77 L 240 77 C 248 95 259 119 271 149 C 283 178 295 210 307 244 C 319 278 332 313 344 349 C 356 385 366 419 374 453 L 434 453 C 424 414 412 374 399 334 C 385 294 372 255 358 218 C 344 181 331 147 318 116 C 305 85 294 59 285 39 C 267 0 248 -34 230 -64 C 211 -93 192 -118 172 -140 C 152 -162 131 -180 109 -195 C 87 -210 65 -223 42 -233 L 1 -192 Z" unicode="y" />
<glyph horiz-adv-x="423" d="M 197 270 C 209 290 223 312 237 336 C 251 359 264 380 278 400 L 277 401 L 54 401 L 54 453 L 369 453 L 369 439 L 208 182 C 194 160 181 139 167 117 C 153 95 140 74 127 53 L 128 52 L 386 52 L 386 0 L 37 0 L 37 14 L 197 270 Z" unicode="z" />
<glyph horiz-adv-x="300" d="M 98 28 C 98 75 91 117 78 153 C 64 189 41 218 7 240 C 41 261 64 290 78 327 C 91 363 98 405 98 453 C 98 487 101 519 107 549 C 113 579 124 605 138 627 C 152 649 171 667 194 680 C 217 692 245 699 279 699 L 293 649 C 268 649 247 644 230 635 C 213 625 199 612 189 594 C 179 576 171 555 167 531 C 163 507 161 480 161 450 C 161 404 154 363 142 329 C 130 295 110 265 82 240 C 110 215 130 185 142 151 C 154 116 161 76 161 30 C 161 0 163 -27 167 -51 C 171 -75 179 -96 189 -114 C 199 -132 213 -145 230 -155 C 247 -164 268 -169 293 -169 L 279 -219 C 245 -219 217 -212 194 -200 C 171 -187 152 -169 138 -147 C 124 -125 113 -99 107 -69 C 101 -39 98 -6 98 28 Z" unicode="{" />
<glyph horiz-adv-x="194" d="M 125 712 L 125 -231 L 69 -231 L 69 712 L 125 712 Z" unicode="|" />
<glyph horiz-adv-x="300" d="M 7 -169 C 31 -169 52 -164 69 -155 C 86 -145 100 -132 110 -114 C 120 -96 128 -75 132 -51 C 136 -27 139 0 139 30 C 139 76 145 116 157 151 C 169 185 190 215 218 240 C 190 265 169 295 157 329 C 145 363 139 404 139 450 C 139 480 136 507 132 531 C 128 555 120 576 110 594 C 100 612 86 625 69 635 C 52 644 31 649 7 649 L 21 699 C 54 699 82 692 105 680 C 128 667 147 649 161 627 C 175 605 186 579 192 549 C 198 519 202 487 202 453 C 202 405 208 363 222 327 C 235 290 259 261 293 240 C 259 218 235 189 222 153 C 208 117 202 75 202 28 C 202 -6 198 -39 192 -69 C 186 -99 175 -125 161 -147 C 147 -169 128 -187 105 -200 C 82 -212 54 -219 21 -219 L 7 -169 Z" unicode="}" />
<glyph horiz-adv-x="358" d="M 44 231 C 50 241 56 251 64 262 C 72 272 80 282 88 292 C 96 301 104 309 112 315 C 120 321 127 324 133 324 C 139 324 146 321 155 317 C 163 313 172 308 180 303 C 188 298 196 293 203 289 C 210 285 216 283 220 283 C 224 283 228 285 234 289 C 239 293 244 297 250 303 C 255 309 260 315 265 321 C 269 327 273 332 277 336 L 314 320 C 308 310 301 299 293 289 C 285 278 278 268 270 259 C 262 249 254 242 246 236 C 238 230 232 227 226 227 C 220 227 212 229 204 233 C 195 237 186 241 178 246 C 170 251 162 256 155 260 C 147 264 142 267 138 267 C 134 267 129 265 124 261 C 118 257 113 252 108 246 C 102 240 97 235 92 229 C 87 223 83 218 81 214 L 44 231 Z" unicode="~" />
<glyph horiz-adv-x="119" d="" unicode=" " />
<glyph horiz-adv-x="239" d="" unicode="¡" />
<glyph horiz-adv-x="453" d="M 255 86 C 225 88 196 95 170 107 C 144 119 121 135 101 155 C 81 175 66 198 54 226 C 42 253 37 283 37 317 C 37 350 42 380 54 408 C 65 436 81 460 101 480 C 121 500 144 516 170 528 C 196 540 225 547 255 549 L 255 638 L 298 638 L 298 549 C 321 547 343 544 363 538 C 383 532 400 524 416 515 L 403 456 C 367 480 325 493 279 493 C 253 493 230 488 208 480 C 186 471 168 459 152 443 C 136 427 123 409 114 387 C 105 365 101 342 101 316 C 101 290 105 266 115 244 C 124 222 137 204 153 189 C 169 173 188 161 210 153 C 232 144 255 140 281 140 C 304 140 325 142 345 146 C 365 150 384 158 404 170 L 396 109 C 382 101 367 96 351 93 C 335 89 317 87 298 86 L 298 0 L 255 0 L 255 86 Z" unicode="¢" />
<glyph horiz-adv-x="380" d="M 48 52 C 57 63 65 75 71 88 C 77 100 82 114 86 129 C 90 144 92 161 94 180 C 96 199 97 221 97 245 L 97 301 L 17 301 L 17 342 L 97 342 L 97 458 C 97 490 101 517 111 541 C 120 564 133 583 150 599 C 166 615 185 626 207 634 C 229 642 252 646 278 646 C 313 646 339 642 357 636 L 351 577 C 341 581 331 584 319 586 C 307 588 294 589 281 589 C 264 589 248 586 234 581 C 220 576 207 568 196 557 C 185 546 176 532 170 515 C 164 498 161 478 161 455 L 161 342 L 284 342 L 279 301 L 161 301 L 161 240 C 161 195 157 157 150 127 C 142 97 132 73 120 56 L 381 56 L 381 0 L 48 0 L 48 52 Z" unicode="£" />
<glyph horiz-adv-x="501" d="M 76 258 L 76 298 L 203 298 L 26 638 L 96 638 L 202 434 C 210 418 218 401 227 383 C 236 365 244 347 252 331 L 254 331 C 261 347 269 365 279 383 C 288 401 297 418 305 434 L 411 638 L 475 638 L 297 298 L 425 298 L 425 258 L 283 258 L 283 0 L 217 0 L 217 258 L 76 258 Z" unicode="¥" />
<glyph horiz-adv-x="215" d="M 135 181 L 135 -231 L 80 -231 L 80 181 L 135 181 Z M 135 712 L 135 300 L 80 300 L 80 712 L 135 712 Z" unicode="¦" />
<glyph horiz-adv-x="482" d="M 108 -128 C 124 -139 143 -148 165 -155 C 186 -161 209 -165 233 -165 C 253 -165 270 -162 285 -156 C 300 -150 312 -143 322 -133 C 331 -123 338 -113 343 -101 C 347 -89 350 -77 350 -65 C 350 -53 348 -41 344 -29 C 340 -16 333 -5 325 3 L 71 264 L 105 386 C 92 401 83 418 77 436 C 71 454 69 472 69 492 C 69 510 72 529 80 548 C 87 566 98 583 113 598 C 127 613 146 625 168 634 C 190 643 217 648 247 648 C 277 648 304 644 327 637 C 350 630 370 622 388 612 L 374 554 C 357 565 338 574 316 581 C 294 587 272 591 248 591 C 228 591 210 588 196 582 C 181 576 169 569 159 559 C 149 549 142 539 138 527 C 134 515 132 503 132 491 C 132 479 134 467 138 455 C 142 442 148 431 157 423 L 411 162 L 376 40 C 388 24 398 8 404 -10 C 410 -28 413 -46 413 -66 C 413 -85 409 -104 402 -122 C 394 -140 383 -157 369 -172 C 354 -187 335 -199 313 -208 C 291 -217 265 -222 235 -222 C 204 -222 177 -218 154 -211 C 131 -204 111 -196 94 -186 L 108 -128 Z M 139 367 L 117 289 L 343 59 L 365 137 L 139 367 Z" unicode="§" />
<glyph horiz-adv-x="500" d="M 134 563 C 134 574 138 584 146 592 C 154 600 164 605 176 605 C 187 605 197 600 205 592 C 213 584 218 574 218 563 C 218 551 213 541 205 533 C 197 525 187 521 176 521 C 164 521 154 525 146 533 C 138 541 134 551 134 563 Z M 282 563 C 282 574 286 584 294 592 C 302 600 312 605 324 605 C 335 605 345 600 353 592 C 361 584 366 574 366 563 C 366 551 361 541 353 533 C 345 525 335 521 324 521 C 312 521 302 525 294 533 C 286 541 282 551 282 563 Z" unicode="¨" />
<glyph horiz-adv-x="612" d="M 172 253 C 172 274 176 293 184 311 C 192 329 202 344 216 356 C 229 368 244 378 262 385 C 280 392 299 396 319 396 C 336 396 352 393 368 389 C 383 385 396 379 406 372 L 395 326 C 385 333 374 339 360 343 C 346 347 333 349 321 349 C 293 349 269 340 251 322 C 233 304 224 280 224 252 C 224 224 233 201 251 183 C 269 165 293 156 321 156 C 348 156 373 162 397 175 L 391 127 C 371 115 347 110 319 110 C 299 110 281 113 263 120 C 245 126 229 136 216 148 C 202 160 192 175 184 193 C 176 211 172 231 172 253 Z M 42 250 C 42 288 48 324 62 356 C 76 388 95 416 119 439 C 143 462 171 480 203 493 C 235 505 269 512 306 512 C 342 512 377 505 409 493 C 441 480 469 462 493 439 C 517 416 535 388 549 356 C 563 324 570 288 570 250 C 570 211 563 176 549 144 C 535 112 517 84 493 61 C 469 38 441 20 409 7 C 377 -5 342 -12 306 -12 C 269 -12 235 -5 203 7 C 171 20 143 38 119 61 C 95 84 76 112 62 144 C 48 176 42 211 42 250 Z M 529 250 C 529 282 523 311 512 339 C 501 366 486 390 466 410 C 446 430 422 445 395 457 C 367 468 338 474 306 474 C 274 474 244 468 217 457 C 189 445 166 430 146 410 C 126 390 111 366 100 339 C 89 311 84 282 84 250 C 84 218 89 188 100 161 C 111 133 126 110 146 90 C 166 70 189 54 217 43 C 244 31 274 26 306 26 C 338 26 367 31 395 43 C 422 54 446 70 466 90 C 486 110 501 133 512 161 C 523 188 529 218 529 250 Z" unicode="©" />
<glyph horiz-adv-x="371" d="M 37 379 C 37 397 40 412 47 426 C 54 439 63 450 74 460 C 85 469 98 476 112 482 C 126 487 141 490 156 492 L 250 501 L 250 532 C 250 553 242 570 228 582 C 214 594 193 601 167 601 C 149 601 131 598 114 593 C 97 588 82 581 69 572 L 58 619 C 88 639 125 649 170 649 C 210 649 242 638 268 618 C 293 597 306 567 306 528 L 306 364 C 306 346 310 333 320 324 C 329 315 340 309 354 307 L 317 271 C 304 273 292 279 280 288 C 268 297 261 310 258 327 C 249 308 235 294 217 285 C 198 275 178 271 156 271 C 138 271 122 273 108 279 C 93 285 80 292 70 302 C 59 312 51 323 45 336 C 39 349 37 363 37 379 Z M 141 155 C 141 166 145 176 153 184 C 161 192 171 197 183 197 C 194 197 204 192 212 184 C 220 176 225 166 225 155 C 225 143 220 132 212 124 C 204 116 194 112 183 112 C 171 112 161 116 153 124 C 145 132 141 143 141 155 Z M 250 455 L 161 446 C 140 444 123 436 111 424 C 98 412 92 396 92 377 C 92 359 98 345 111 334 C 123 322 139 317 158 317 C 168 317 179 319 190 323 C 200 327 210 333 219 341 C 228 349 235 358 241 370 C 247 381 250 394 250 409 L 250 455 Z" unicode="ª" />
<glyph horiz-adv-x="382" d="M 39 206 C 35 208 32 212 30 216 C 27 220 26 223 26 226 C 26 228 27 232 30 236 C 32 240 35 243 39 246 C 58 260 78 278 98 300 C 118 321 136 341 151 361 L 161 336 C 143 296 123 259 101 226 C 123 192 143 156 161 116 L 151 91 C 136 110 118 130 98 152 C 78 173 58 191 39 206 Z M 216 206 C 212 208 209 212 207 216 C 204 220 203 223 203 226 C 203 228 204 232 207 236 C 209 240 212 243 216 246 C 235 260 255 278 275 300 C 295 321 313 341 328 361 L 338 336 C 320 296 300 259 278 226 C 300 192 320 156 338 116 L 328 91 C 313 110 295 130 275 152 C 255 173 235 191 216 206 Z" unicode="«" />
<glyph horiz-adv-x="508" d="M 44 250 L 44 304 L 444 304 L 444 143 L 387 143 L 387 250 L 44 250 Z" unicode="¬" />
<glyph horiz-adv-x="338" d="M 294 304 L 294 250 L 44 250 L 44 304 L 294 304 Z" unicode="­" />
<glyph horiz-adv-x="452" d="M 228 575 C 247 575 264 568 279 556 C 293 544 301 528 301 509 C 301 495 297 483 290 473 C 283 463 274 455 264 450 L 322 367 L 292 348 L 228 441 L 196 441 L 196 347 L 160 347 L 160 575 L 228 575 Z M 37 462 C 37 489 41 514 51 537 C 61 560 74 580 91 596 C 108 612 128 625 151 635 C 174 644 199 649 226 649 C 252 649 277 644 300 635 C 323 625 343 612 360 596 C 377 580 390 560 400 537 C 410 514 415 489 415 462 C 415 434 410 409 400 386 C 390 363 377 343 360 327 C 343 310 323 297 300 288 C 277 278 252 274 226 274 C 199 274 174 278 151 288 C 128 297 108 310 91 327 C 74 343 61 363 51 386 C 41 409 37 434 37 462 Z M 381 462 C 381 484 377 505 369 525 C 361 544 350 560 336 574 C 322 588 306 598 287 606 C 268 613 248 617 226 617 C 204 617 183 613 164 606 C 145 598 129 588 115 574 C 101 560 90 544 82 525 C 74 505 71 484 71 462 C 71 438 74 417 82 398 C 90 379 101 363 115 349 C 129 335 145 325 164 317 C 183 309 204 306 226 306 C 248 306 268 309 287 317 C 306 325 322 335 336 349 C 350 363 361 379 369 398 C 377 417 381 438 381 462 Z M 224 473 C 236 473 246 476 253 483 C 260 489 264 498 264 509 C 264 531 250 543 224 543 L 196 543 L 196 473 L 224 473 Z" unicode="®" />
<glyph horiz-adv-x="500" d="M 336 582 L 336 527 L 164 527 L 164 582 L 336 582 Z" unicode="¯" />
<glyph horiz-adv-x="294" d="M 44 548 C 44 562 46 575 52 587 C 57 599 64 610 74 619 C 84 628 95 635 107 641 C 119 646 133 649 147 649 C 161 649 174 646 186 641 C 198 635 209 628 219 619 C 228 610 235 599 241 587 C 246 575 249 562 249 548 C 249 534 246 520 241 508 C 235 496 228 485 219 476 C 209 467 198 460 186 455 C 174 449 161 447 147 447 C 133 447 119 449 107 455 C 95 460 84 467 74 476 C 64 485 57 496 52 508 C 46 520 44 534 44 548 Z M 202 548 C 202 565 196 579 186 590 C 176 600 163 606 147 606 C 131 606 117 600 107 590 C 96 579 91 565 91 548 C 91 531 96 517 107 506 C 117 495 131 490 147 490 C 163 490 176 495 186 506 C 196 517 202 531 202 548 Z" unicode="°" />
<glyph horiz-adv-x="301" d="M 41 260 C 47 267 53 274 57 282 C 61 289 65 297 68 306 C 70 315 72 325 73 337 C 74 348 75 361 75 377 L 75 408 L 20 408 L 20 453 L 75 453 L 75 524 C 75 568 87 600 111 622 C 135 643 166 654 202 654 C 220 654 234 652 245 650 C 256 647 265 644 273 641 L 268 587 C 260 591 251 594 239 597 C 227 599 216 601 204 601 C 184 601 168 595 156 585 C 144 574 138 553 138 522 L 138 453 L 223 453 L 218 408 L 138 408 L 138 374 C 138 346 136 323 132 307 C 128 290 122 275 115 263 L 290 263 L 290 208 L 41 208 L 41 260 Z" unicode="±" />
<glyph horiz-adv-x="356" d="M 37 261 C 108 321 159 373 191 416 C 223 458 239 494 239 524 C 239 552 230 573 213 587 C 196 601 173 609 144 609 C 126 609 110 606 95 602 C 80 598 66 592 54 585 L 43 625 C 55 632 69 638 87 642 C 104 646 123 649 144 649 C 190 649 225 637 249 615 C 273 592 286 561 286 523 C 286 489 272 452 244 411 C 216 370 179 329 131 287 L 305 287 L 305 247 L 37 247 L 37 261 Z" unicode="²" />
<glyph horiz-adv-x="317" d="M 48 304 C 59 298 71 292 85 288 C 99 284 112 282 126 282 C 151 282 173 289 192 305 C 211 320 221 342 222 372 C 222 393 215 411 200 427 C 184 443 164 451 138 451 C 135 451 131 450 127 450 C 123 450 119 449 116 449 L 113 489 C 137 493 156 502 171 514 C 186 526 194 540 195 558 C 195 571 190 583 180 593 C 170 603 155 608 136 609 C 123 609 111 608 100 605 C 89 601 78 597 68 591 L 65 634 C 75 639 86 643 98 646 C 110 648 123 649 137 649 C 169 648 194 639 214 623 C 233 606 242 585 242 560 C 241 538 234 520 221 506 C 207 491 192 482 175 478 C 202 474 225 463 243 444 C 261 425 269 400 269 368 C 268 330 255 299 230 276 C 205 253 171 242 127 242 C 113 242 100 243 87 246 C 73 249 62 253 52 258 L 48 304 Z" unicode="³" />
<glyph horiz-adv-x="370" d="M 133 -190 C 165 -182 189 -167 206 -144 C 223 -120 232 -88 232 -47 L 232 313 L 220 313 C 196 313 173 316 151 323 C 129 330 109 340 92 354 C 75 368 62 385 52 405 C 42 425 37 449 37 477 C 37 504 42 528 52 549 C 62 569 75 587 92 601 C 109 615 129 625 151 632 C 173 639 197 643 221 643 L 363 643 L 363 590 L 296 590 L 296 -52 C 296 -76 292 -98 286 -118 C 279 -138 270 -155 259 -171 C 248 -186 235 -199 221 -209 C 206 -219 190 -226 174 -230 L 133 -190 Z" unicode="¶" />
<glyph horiz-adv-x="186" d="M 44 270 C 44 283 48 294 58 304 C 68 314 79 319 93 319 C 106 319 117 314 127 304 C 137 294 142 283 142 270 C 142 256 137 245 127 235 C 117 225 106 221 93 221 C 79 221 68 225 58 235 C 48 245 44 256 44 270 Z" unicode="·" />
<glyph horiz-adv-x="500" d="M 169 -163 C 178 -170 189 -175 201 -179 C 213 -183 224 -185 236 -185 C 250 -185 263 -180 275 -171 C 287 -161 293 -148 293 -130 C 293 -111 286 -97 274 -88 C 262 -79 251 -75 241 -75 C 229 -75 221 -71 217 -65 C 213 -59 213 -52 215 -45 L 228 2 L 259 2 L 249 -33 C 259 -33 270 -36 281 -40 C 291 -44 301 -51 310 -59 C 318 -67 325 -77 331 -89 C 337 -100 340 -113 340 -128 C 340 -144 336 -158 330 -170 C 324 -182 316 -193 306 -201 C 296 -209 284 -215 272 -219 C 260 -223 247 -225 235 -225 C 208 -225 183 -217 160 -201 L 169 -163 Z" unicode="¸" />
<glyph horiz-adv-x="256" d="M 121 588 C 117 584 110 580 102 577 C 94 573 86 571 79 570 L 59 608 C 63 608 67 610 73 612 C 79 614 85 617 91 620 C 97 623 102 626 108 629 C 113 632 117 635 121 638 L 168 638 L 168 248 L 121 248 L 121 588 Z" unicode="¹" />
<glyph horiz-adv-x="458" d="M 187 155 C 187 166 191 176 199 184 C 207 192 217 197 229 197 C 240 197 250 192 258 184 C 266 176 271 166 271 155 C 271 143 266 132 258 124 C 250 116 240 112 229 112 C 217 112 207 116 199 124 C 191 132 187 143 187 155 Z M 37 460 C 37 488 41 513 51 536 C 61 559 74 579 92 596 C 109 612 129 625 153 635 C 176 644 201 649 229 649 C 256 649 281 644 305 635 C 328 625 348 612 366 596 C 383 579 396 559 406 536 C 416 513 421 488 421 460 C 421 432 416 407 406 384 C 396 360 383 340 366 324 C 348 307 328 294 305 285 C 281 275 256 271 229 271 C 201 271 176 275 153 285 C 129 294 109 307 92 324 C 74 340 61 360 51 384 C 41 407 37 432 37 460 Z M 365 460 C 365 480 361 499 354 517 C 347 534 337 549 325 562 C 313 574 298 584 282 591 C 265 598 247 602 229 602 C 209 602 191 598 175 591 C 159 584 144 574 132 562 C 120 549 110 534 103 517 C 96 499 93 480 93 460 C 93 439 96 420 103 403 C 110 385 120 370 132 358 C 144 345 159 335 175 328 C 191 321 209 318 229 318 C 247 318 265 321 282 328 C 298 335 313 345 325 358 C 337 370 347 385 354 403 C 361 420 365 439 365 460 Z" unicode="º" />
<glyph horiz-adv-x="382" d="M 44 116 C 52 135 61 154 71 172 C 81 190 92 208 104 226 C 92 243 81 261 71 279 C 61 297 52 316 44 336 L 55 361 C 69 341 87 321 107 300 C 127 278 146 260 166 246 C 169 243 172 240 175 236 C 177 232 179 228 179 226 C 179 223 177 220 175 216 C 172 212 169 208 166 206 C 146 191 127 173 107 152 C 87 130 69 110 55 91 L 44 116 Z M 221 116 C 229 135 238 154 248 172 C 258 190 269 208 281 226 C 269 243 258 261 248 279 C 238 297 229 316 221 336 L 231 361 C 245 341 263 321 283 300 C 303 278 323 260 343 246 C 346 243 349 240 352 236 C 354 232 356 228 356 226 C 356 223 354 220 352 216 C 349 212 346 208 343 206 C 323 191 303 173 283 152 C 263 130 245 110 231 91 L 221 116 Z" unicode="»" />
<glyph horiz-adv-x="720" d="M 388 116 L 377 155 L 571 397 L 610 397 L 610 156 L 664 156 L 664 116 L 610 116 L 610 0 L 563 0 L 563 116 L 388 116 Z M 563 273 C 563 291 564 311 566 331 L 564 332 C 558 322 551 312 544 302 C 536 292 529 282 521 272 L 430 156 L 563 156 L 563 273 Z M 586 652 L 612 629 L 92 -14 L 65 8 L 586 652 Z M 121 588 C 117 584 110 580 102 577 C 94 573 86 571 79 570 L 59 608 C 63 608 67 610 73 612 C 79 614 85 617 91 620 C 97 623 102 626 108 629 C 113 632 117 635 121 638 L 168 638 L 168 248 L 121 248 L 121 588 Z" unicode="¼" />
<glyph horiz-adv-x="784" d="M 466 13 C 537 73 588 125 620 168 C 652 211 668 247 668 277 C 668 305 659 326 642 340 C 624 354 601 362 572 362 C 554 362 538 359 523 355 C 508 351 494 345 482 338 L 471 377 C 483 384 497 390 515 395 C 532 399 551 402 572 402 C 618 402 653 390 677 367 C 701 344 714 313 714 275 C 714 241 700 204 673 164 C 645 123 608 82 560 40 L 733 40 L 733 0 L 466 0 L 466 13 Z M 586 652 L 612 629 L 92 -14 L 65 9 L 586 652 Z M 121 588 C 117 584 110 580 102 577 C 94 573 86 571 79 570 L 59 608 C 63 608 67 610 73 612 C 79 614 85 617 91 620 C 97 623 102 626 108 629 C 113 632 117 635 121 638 L 168 638 L 168 248 L 121 248 L 121 588 Z" unicode="½" />
<glyph horiz-adv-x="763" d="M 440 116 L 430 155 L 624 397 L 663 397 L 663 156 L 717 156 L 717 116 L 663 116 L 663 0 L 616 0 L 616 116 L 440 116 Z M 616 273 C 616 291 617 311 619 331 L 617 332 C 610 322 603 312 596 302 C 589 292 582 282 574 272 L 483 156 L 616 156 L 616 273 Z M 639 652 L 665 629 L 145 -14 L 117 8 L 639 652 Z M 48 304 C 59 298 71 292 85 288 C 99 284 112 282 126 282 C 151 282 173 289 192 305 C 211 320 221 342 222 372 C 222 393 215 411 200 427 C 184 443 164 451 138 451 C 135 451 131 450 127 450 C 123 450 119 449 116 449 L 113 489 C 137 493 156 502 171 514 C 186 526 194 540 195 558 C 195 571 190 583 180 593 C 170 603 155 608 136 609 C 123 609 111 608 100 605 C 89 601 78 597 68 591 L 65 634 C 75 639 86 643 98 646 C 110 648 123 649 137 649 C 169 648 194 639 214 623 C 233 606 242 585 242 560 C 241 538 234 520 221 506 C 207 491 192 482 175 478 C 202 474 225 463 243 444 C 261 425 269 400 269 368 C 268 330 255 299 230 276 C 205 253 171 242 127 242 C 113 242 100 243 87 246 C 73 249 62 253 52 258 L 48 304 Z" unicode="¾" />
<glyph horiz-adv-x="368" d="" unicode="¿" />
<glyph horiz-adv-x="601" d="M 311 647 C 337 601 363 551 389 497 C 415 442 439 386 461 329 C 483 272 502 215 519 159 C 535 103 548 50 556 0 L 489 0 C 483 28 477 58 469 88 C 461 118 452 148 443 179 L 154 179 C 144 148 136 118 128 88 C 120 58 113 28 108 0 L 44 0 C 53 50 66 103 83 159 C 99 215 118 272 140 329 C 162 386 185 442 211 497 C 236 551 262 601 289 647 L 311 647 Z M 298 537 C 290 522 282 504 272 483 C 262 461 251 437 240 411 C 229 385 218 357 206 327 C 194 297 183 266 173 234 L 424 234 C 412 266 401 297 390 327 C 378 357 367 385 356 411 C 345 437 335 461 325 483 C 315 504 307 522 300 537 L 298 537 Z M 195 830 C 192 833 190 836 188 840 C 186 843 185 846 185 850 C 185 852 186 856 189 860 C 191 864 195 868 199 872 C 203 876 207 879 211 882 C 215 884 218 886 222 886 C 225 886 229 884 233 882 C 237 879 241 875 245 871 C 262 847 283 822 307 798 C 331 773 355 752 378 734 L 334 715 C 308 731 283 749 260 768 C 236 786 215 807 195 830 Z" unicode="À" />
<glyph horiz-adv-x="601" d="M 311 647 C 337 601 363 551 389 497 C 415 442 439 386 461 329 C 483 272 502 215 519 159 C 535 103 548 50 556 0 L 489 0 C 483 28 477 58 469 88 C 461 118 452 148 443 179 L 154 179 C 144 148 136 118 128 88 C 120 58 113 28 108 0 L 44 0 C 53 50 66 103 83 159 C 99 215 118 272 140 329 C 162 386 185 442 211 497 C 236 551 262 601 289 647 L 311 647 Z M 298 537 C 290 522 282 504 272 483 C 262 461 251 437 240 411 C 229 385 218 357 206 327 C 194 297 183 266 173 234 L 424 234 C 412 266 401 297 390 327 C 378 357 367 385 356 411 C 345 437 335 461 325 483 C 315 504 307 522 300 537 L 298 537 Z M 226 733 C 249 751 273 773 297 798 C 321 823 342 848 360 872 C 362 876 366 879 370 882 C 374 884 378 886 382 886 C 384 886 388 884 392 882 C 396 879 400 876 404 872 C 408 868 411 865 414 861 C 416 857 418 853 418 851 C 418 848 417 845 415 842 C 413 838 410 835 407 832 C 387 809 366 788 342 769 C 318 749 293 731 267 715 L 226 733 Z" unicode="Á" />
<glyph horiz-adv-x="601" d="M 311 647 C 337 601 363 551 389 497 C 415 442 439 386 461 329 C 483 272 502 215 519 159 C 535 103 548 50 556 0 L 489 0 C 483 28 477 58 469 88 C 461 118 452 148 443 179 L 154 179 C 144 148 136 118 128 88 C 120 58 113 28 108 0 L 44 0 C 53 50 66 103 83 159 C 99 215 118 272 140 329 C 162 386 185 442 211 497 C 236 551 262 601 289 647 L 311 647 Z M 298 537 C 290 522 282 504 272 483 C 262 461 251 437 240 411 C 229 385 218 357 206 327 C 194 297 183 266 173 234 L 424 234 C 412 266 401 297 390 327 C 378 357 367 385 356 411 C 345 437 335 461 325 483 C 315 504 307 522 300 537 L 298 537 Z M 145 733 C 168 751 192 772 216 797 C 240 822 261 847 278 871 C 281 875 285 879 289 882 C 293 884 297 886 301 886 C 304 886 308 884 312 882 C 316 879 320 875 324 871 C 340 847 361 822 385 798 C 409 773 433 752 457 734 L 413 715 C 393 728 373 742 353 757 C 333 771 314 787 298 804 C 264 771 226 741 186 715 L 145 733 Z" unicode="Â" />
<glyph horiz-adv-x="601" d="M 311 647 C 337 601 363 551 389 497 C 415 442 439 386 461 329 C 483 272 502 215 519 159 C 535 103 548 50 556 0 L 489 0 C 483 28 477 58 469 88 C 461 118 452 148 443 179 L 154 179 C 144 148 136 118 128 88 C 120 58 113 28 108 0 L 44 0 C 53 50 66 103 83 159 C 99 215 118 272 140 329 C 162 386 185 442 211 497 C 236 551 262 601 289 647 L 311 647 Z M 298 537 C 290 522 282 504 272 483 C 262 461 251 437 240 411 C 229 385 218 357 206 327 C 194 297 183 266 173 234 L 424 234 C 412 266 401 297 390 327 C 378 357 367 385 356 411 C 345 437 335 461 325 483 C 315 504 307 522 300 537 L 298 537 Z M 149 737 C 155 748 163 760 173 773 C 182 786 191 798 201 809 C 210 819 219 828 229 835 C 238 842 246 846 253 846 C 260 846 269 843 279 838 C 289 833 299 828 309 822 C 319 816 328 810 336 805 C 344 800 351 798 355 798 C 359 798 365 800 371 805 C 377 809 384 815 390 822 C 396 828 402 835 408 842 C 414 849 418 855 422 860 L 466 841 C 459 829 451 817 442 804 C 432 791 423 779 414 769 C 404 758 395 749 386 742 C 376 735 368 732 362 732 C 354 732 346 734 336 739 C 326 744 316 749 306 755 C 296 761 287 766 279 771 C 271 776 264 779 260 779 C 254 779 249 776 243 772 C 237 767 230 761 224 755 C 218 748 212 741 206 734 C 200 727 196 721 193 717 L 149 737 Z" unicode="Ã" />
<glyph horiz-adv-x="601" d="M 311 647 C 337 601 363 551 389 497 C 415 442 439 386 461 329 C 483 272 502 215 519 159 C 535 103 548 50 556 0 L 489 0 C 483 28 477 58 469 88 C 461 118 452 148 443 179 L 154 179 C 144 148 136 118 128 88 C 120 58 113 28 108 0 L 44 0 C 53 50 66 103 83 159 C 99 215 118 272 140 329 C 162 386 185 442 211 497 C 236 551 262 601 289 647 L 311 647 Z M 298 537 C 290 522 282 504 272 483 C 262 461 251 437 240 411 C 229 385 218 357 206 327 C 194 297 183 266 173 234 L 424 234 C 412 266 401 297 390 327 C 378 357 367 385 356 411 C 345 437 335 461 325 483 C 315 504 307 522 300 537 L 298 537 Z M 184 763 C 184 774 188 784 196 792 C 204 800 214 805 226 805 C 237 805 247 800 255 792 C 263 784 268 774 268 763 C 268 751 263 741 255 733 C 247 725 237 721 226 721 C 214 721 204 725 196 733 C 188 741 184 751 184 763 Z M 332 763 C 332 774 336 784 344 792 C 352 800 362 805 374 805 C 385 805 395 800 403 792 C 411 784 416 774 416 763 C 416 751 411 741 403 733 C 395 725 385 721 374 721 C 362 721 352 725 344 733 C 336 741 332 751 332 763 Z" unicode="Ä" />
<glyph horiz-adv-x="601" d="M 311 647 C 337 601 363 551 389 497 C 415 442 439 386 461 329 C 483 272 502 215 519 159 C 535 103 548 50 556 0 L 489 0 C 483 28 477 58 469 88 C 461 118 452 148 443 179 L 154 179 C 144 148 136 118 128 88 C 120 58 113 28 108 0 L 44 0 C 53 50 66 103 83 159 C 99 215 118 272 140 329 C 162 386 185 442 211 497 C 236 551 262 601 289 647 L 311 647 Z M 298 537 C 290 522 282 504 272 483 C 262 461 251 437 240 411 C 229 385 218 357 206 327 C 194 297 183 266 173 234 L 424 234 C 412 266 401 297 390 327 C 378 357 367 385 356 411 C 345 437 335 461 325 483 C 315 504 307 522 300 537 L 298 537 Z M 199 808 C 199 822 201 835 207 847 C 212 859 219 869 229 879 C 238 888 249 895 261 901 C 273 906 287 909 301 909 C 315 909 328 906 340 901 C 352 895 363 888 373 879 C 382 869 389 859 395 847 C 400 835 403 822 403 808 C 403 794 400 780 395 768 C 389 756 382 745 373 736 C 363 726 352 719 340 714 C 328 708 315 706 301 706 C 287 706 273 708 261 714 C 249 719 238 726 229 736 C 219 745 212 756 207 768 C 201 780 199 794 199 808 Z M 356 808 C 356 824 350 838 340 849 C 330 860 317 866 301 866 C 285 866 271 860 261 849 C 250 838 245 824 245 808 C 245 791 250 777 261 766 C 271 755 285 750 301 750 C 317 750 330 755 340 766 C 350 777 356 791 356 808 Z" unicode="Å" />
<glyph horiz-adv-x="794" d="M 752 638 L 752 580 L 487 580 L 487 350 L 704 350 L 704 292 L 487 292 L 487 58 L 787 58 L 787 0 L 420 0 L 420 179 L 198 179 L 94 0 L 26 0 L 396 638 L 752 638 Z M 420 463 C 420 485 420 504 420 521 C 420 538 421 557 421 578 L 419 579 C 409 559 399 540 389 520 C 379 500 368 480 358 462 L 227 234 L 420 234 L 420 463 Z" unicode="Æ" />
<glyph horiz-adv-x="604" d="M 295 -163 C 304 -170 314 -175 326 -179 C 338 -183 350 -185 362 -185 C 376 -185 389 -180 401 -171 C 413 -161 419 -148 419 -130 C 419 -111 412 -97 400 -88 C 388 -79 377 -75 367 -75 C 354 -75 346 -71 343 -65 C 339 -59 339 -52 341 -45 L 352 -5 C 312 -2 273 7 236 23 C 198 39 165 61 137 89 C 108 117 85 150 68 189 C 50 227 42 271 42 319 C 42 369 51 415 70 455 C 89 495 114 530 145 558 C 176 586 212 607 252 622 C 292 636 334 644 376 644 C 416 644 451 639 483 631 C 515 623 541 613 562 602 L 548 542 C 530 552 507 562 477 571 C 447 579 416 584 382 584 C 346 584 312 578 279 566 C 246 554 217 536 192 513 C 167 490 147 462 132 429 C 117 396 110 359 110 318 C 110 276 117 239 132 207 C 146 174 166 146 191 123 C 216 100 245 82 278 70 C 311 58 346 52 382 52 C 418 52 450 55 478 62 C 506 69 530 79 552 92 L 545 29 C 526 18 504 10 478 4 C 452 -2 420 -5 382 -6 L 375 -33 C 385 -33 396 -36 407 -40 C 417 -44 427 -51 436 -59 C 444 -67 451 -77 457 -89 C 463 -100 466 -113 466 -128 C 466 -144 462 -158 456 -170 C 450 -182 442 -193 432 -201 C 422 -209 410 -215 398 -219 C 386 -223 373 -225 361 -225 C 347 -225 333 -222 321 -218 C 308 -214 296 -208 286 -201 L 295 -163 Z" unicode="Ç" />
<glyph horiz-adv-x="444" d="M 402 638 L 402 580 L 136 580 L 136 350 L 354 350 L 354 292 L 136 292 L 136 58 L 437 58 L 437 0 L 69 0 L 69 638 L 402 638 Z M 132 830 C 129 833 127 836 125 840 C 123 843 122 846 122 850 C 122 852 123 856 126 860 C 128 864 132 868 136 872 C 140 876 144 879 148 882 C 152 884 155 886 159 886 C 162 886 166 884 170 882 C 174 879 178 875 182 871 C 199 847 220 822 244 798 C 268 773 292 752 315 734 L 271 715 C 245 731 220 749 197 768 C 173 786 152 807 132 830 Z" unicode="È" />
<glyph horiz-adv-x="444" d="M 402 638 L 402 580 L 136 580 L 136 350 L 354 350 L 354 292 L 136 292 L 136 58 L 437 58 L 437 0 L 69 0 L 69 638 L 402 638 Z M 178 733 C 201 751 225 773 249 798 C 273 823 294 848 312 872 C 314 876 318 879 322 882 C 326 884 330 886 334 886 C 336 886 340 884 344 882 C 348 879 352 876 356 872 C 360 868 363 865 366 861 C 368 857 370 853 370 851 C 370 848 369 845 367 842 C 365 838 362 835 359 832 C 339 809 318 788 294 769 C 270 749 245 731 219 715 L 178 733 Z" unicode="É" />
<glyph horiz-adv-x="444" d="M 402 638 L 402 580 L 136 580 L 136 350 L 354 350 L 354 292 L 136 292 L 136 58 L 437 58 L 437 0 L 69 0 L 69 638 L 402 638 Z M 90 733 C 113 751 137 772 161 797 C 185 822 206 847 223 871 C 226 875 230 879 234 882 C 238 884 242 886 246 886 C 249 886 253 884 257 882 C 261 879 265 875 269 871 C 285 847 306 822 330 798 C 354 773 378 752 402 734 L 358 715 C 338 728 318 742 298 757 C 278 771 259 787 243 804 C 209 771 171 741 131 715 L 90 733 Z" unicode="Ê" />
<glyph horiz-adv-x="444" d="M 402 638 L 402 580 L 136 580 L 136 350 L 354 350 L 354 292 L 136 292 L 136 58 L 437 58 L 437 0 L 69 0 L 69 638 L 402 638 Z M 128 763 C 128 774 132 784 140 792 C 148 800 158 805 170 805 C 181 805 191 800 199 792 C 207 784 212 774 212 763 C 212 751 207 741 199 733 C 191 725 181 721 170 721 C 158 721 148 725 140 733 C 132 741 128 751 128 763 Z M 276 763 C 276 774 280 784 288 792 C 296 800 306 805 318 805 C 329 805 339 800 347 792 C 355 784 360 774 360 763 C 360 751 355 741 347 733 C 339 725 329 721 318 721 C 306 721 296 725 288 733 C 280 741 276 751 276 763 Z" unicode="Ë" />
<glyph horiz-adv-x="225" d="M 146 638 L 146 0 L 79 0 L 79 638 L 146 638 Z M 8 830 C 5 833 3 836 1 840 C -1 843 -2 846 -2 850 C -2 852 0 856 2 860 C 4 864 8 868 12 872 C 16 876 20 879 24 882 C 28 884 31 886 35 886 C 38 886 42 884 46 882 C 50 879 54 875 58 871 C 75 847 96 822 120 798 C 144 773 168 752 191 734 L 147 715 C 121 731 96 749 73 768 C 49 786 28 807 8 830 Z" unicode="Ì" />
<glyph horiz-adv-x="225" d="M 146 638 L 146 0 L 79 0 L 79 638 L 146 638 Z M 37 733 C 60 751 84 773 108 798 C 132 823 153 848 171 872 C 173 876 177 879 181 882 C 185 884 189 886 193 886 C 195 886 199 884 203 882 C 207 879 211 876 215 872 C 219 868 222 865 225 861 C 227 857 229 853 229 851 C 229 848 228 845 226 842 C 224 838 221 835 218 832 C 198 809 177 788 153 769 C 129 749 104 731 78 715 L 37 733 Z" unicode="Í" />
<glyph horiz-adv-x="225" d="M 146 638 L 146 0 L 79 0 L 79 638 L 146 638 Z M -41 733 C -17 751 6 772 30 797 C 54 822 75 847 92 871 C 95 875 99 879 103 882 C 107 884 111 886 115 886 C 118 886 122 884 126 882 C 130 879 134 875 138 871 C 154 847 175 822 199 798 C 223 773 247 752 271 734 L 227 715 C 207 728 187 742 167 757 C 147 771 128 787 112 804 C 78 771 40 741 0 715 L -41 733 Z" unicode="Î" />
<glyph horiz-adv-x="225" d="M 146 638 L 146 0 L 79 0 L 79 638 L 146 638 Z M -3 763 C -3 774 1 784 9 792 C 17 800 27 805 39 805 C 50 805 60 800 68 792 C 76 784 81 774 81 763 C 81 751 76 741 68 733 C 60 725 50 721 39 721 C 27 721 17 725 9 733 C 1 741 -3 751 -3 763 Z M 145 763 C 145 774 149 784 157 792 C 165 800 175 805 187 805 C 198 805 208 800 216 792 C 224 784 229 774 229 763 C 229 751 224 741 216 733 C 208 725 198 721 187 721 C 175 721 165 725 157 733 C 149 741 145 751 145 763 Z" unicode="Ï" />
<glyph horiz-adv-x="663" d="M 17 295 L 17 347 L 100 347 L 100 638 L 267 638 C 315 638 360 630 403 616 C 446 602 484 581 516 554 C 548 527 574 494 593 454 C 611 414 621 369 621 319 C 621 268 611 223 593 183 C 574 143 548 110 516 83 C 484 56 446 35 403 21 C 360 7 315 0 267 0 L 100 0 L 100 295 L 17 295 Z M 257 57 C 299 57 338 62 374 74 C 410 85 441 102 467 124 C 493 146 514 173 529 205 C 544 237 552 275 552 318 C 552 360 544 398 529 431 C 514 463 493 491 467 513 C 441 535 410 551 374 563 C 338 574 299 580 257 580 L 168 580 L 168 347 L 307 347 L 295 295 L 168 295 L 168 57 L 257 57 Z" unicode="Ð" />
<glyph horiz-adv-x="692" d="M 116 638 C 142 616 169 590 199 560 C 229 530 259 499 289 467 C 319 435 348 402 376 368 C 404 334 431 302 455 272 C 479 242 499 214 517 189 C 534 164 547 144 556 129 L 558 130 C 557 139 557 149 557 160 C 557 170 556 183 556 199 C 556 215 556 234 556 257 C 556 280 556 309 556 344 C 556 378 556 419 556 467 C 556 515 556 572 556 638 L 623 638 L 623 0 L 571 0 C 543 43 513 87 481 132 C 449 177 414 222 377 267 C 340 312 301 357 261 401 C 220 445 178 487 136 529 L 134 528 C 134 518 135 507 135 496 C 135 485 135 472 135 456 C 135 440 136 420 136 396 C 136 372 136 342 136 306 C 136 270 136 227 136 177 C 136 127 136 68 136 0 L 69 0 L 69 638 L 116 638 Z M 191 737 C 197 748 205 760 215 773 C 224 786 233 798 243 809 C 252 819 261 828 271 835 C 280 842 288 846 295 846 C 302 846 311 843 321 838 C 331 833 341 828 351 822 C 361 816 370 810 378 805 C 386 800 393 798 397 798 C 401 798 407 800 413 805 C 419 809 426 815 432 822 C 438 828 444 835 450 842 C 456 849 460 855 464 860 L 508 841 C 501 829 493 817 484 804 C 474 791 465 779 456 769 C 446 758 437 749 428 742 C 418 735 410 732 404 732 C 396 732 388 734 378 739 C 368 744 358 749 348 755 C 338 761 329 766 321 771 C 313 776 306 779 302 779 C 296 779 291 776 285 772 C 279 767 272 761 266 755 C 260 748 254 741 248 734 C 242 727 238 721 235 717 L 191 737 Z" unicode="Ñ" />
<glyph horiz-adv-x="752" d="M 42 320 C 42 369 51 414 69 454 C 87 494 112 529 143 558 C 173 587 209 609 249 625 C 289 641 332 649 376 649 C 420 649 462 641 502 625 C 542 609 578 587 609 558 C 639 529 664 494 682 454 C 700 414 710 369 710 320 C 710 270 700 225 682 185 C 664 144 639 109 609 80 C 578 51 542 29 502 13 C 462 -3 420 -11 376 -11 C 332 -11 289 -3 249 13 C 209 29 173 51 143 80 C 112 109 87 144 69 185 C 51 225 42 270 42 320 Z M 642 318 C 642 358 634 395 620 429 C 605 463 585 491 561 515 C 536 538 508 556 476 569 C 444 582 410 589 376 589 C 340 589 307 582 275 569 C 243 556 214 538 190 515 C 166 491 146 463 132 429 C 117 395 110 358 110 318 C 110 276 117 239 132 206 C 146 172 166 144 190 121 C 214 97 243 79 275 66 C 307 53 340 47 376 47 C 410 47 444 53 476 66 C 508 79 536 97 561 121 C 585 144 605 172 620 206 C 634 239 642 276 642 318 Z M 264 830 C 261 833 259 836 257 840 C 255 843 254 846 254 850 C 254 852 255 856 258 860 C 260 864 264 868 268 872 C 272 876 276 879 280 882 C 284 884 287 886 291 886 C 294 886 298 884 302 882 C 306 879 310 875 314 871 C 331 847 352 822 376 798 C 400 773 424 752 447 734 L 403 715 C 377 731 352 749 329 768 C 305 786 284 807 264 830 Z" unicode="Ò" />
<glyph horiz-adv-x="752" d="M 42 320 C 42 369 51 414 69 454 C 87 494 112 529 143 558 C 173 587 209 609 249 625 C 289 641 332 649 376 649 C 420 649 462 641 502 625 C 542 609 578 587 609 558 C 639 529 664 494 682 454 C 700 414 710 369 710 320 C 710 270 700 225 682 185 C 664 144 639 109 609 80 C 578 51 542 29 502 13 C 462 -3 420 -11 376 -11 C 332 -11 289 -3 249 13 C 209 29 173 51 143 80 C 112 109 87 144 69 185 C 51 225 42 270 42 320 Z M 642 318 C 642 358 634 395 620 429 C 605 463 585 491 561 515 C 536 538 508 556 476 569 C 444 582 410 589 376 589 C 340 589 307 582 275 569 C 243 556 214 538 190 515 C 166 491 146 463 132 429 C 117 395 110 358 110 318 C 110 276 117 239 132 206 C 146 172 166 144 190 121 C 214 97 243 79 275 66 C 307 53 340 47 376 47 C 410 47 444 53 476 66 C 508 79 536 97 561 121 C 585 144 605 172 620 206 C 634 239 642 276 642 318 Z M 298 733 C 321 751 345 773 369 798 C 393 823 414 848 432 872 C 434 876 438 879 442 882 C 446 884 450 886 454 886 C 456 886 460 884 464 882 C 468 879 472 876 476 872 C 480 868 483 865 486 861 C 488 857 490 853 490 851 C 490 848 489 845 487 842 C 485 838 482 835 479 832 C 459 809 438 788 414 769 C 390 749 365 731 339 715 L 298 733 Z" unicode="Ó" />
<glyph horiz-adv-x="752" d="M 42 320 C 42 369 51 414 69 454 C 87 494 112 529 143 558 C 173 587 209 609 249 625 C 289 641 332 649 376 649 C 420 649 462 641 502 625 C 542 609 578 587 609 558 C 639 529 664 494 682 454 C 700 414 710 369 710 320 C 710 270 700 225 682 185 C 664 144 639 109 609 80 C 578 51 542 29 502 13 C 462 -3 420 -11 376 -11 C 332 -11 289 -3 249 13 C 209 29 173 51 143 80 C 112 109 87 144 69 185 C 51 225 42 270 42 320 Z M 642 318 C 642 358 634 395 620 429 C 605 463 585 491 561 515 C 536 538 508 556 476 569 C 444 582 410 589 376 589 C 340 589 307 582 275 569 C 243 556 214 538 190 515 C 166 491 146 463 132 429 C 117 395 110 358 110 318 C 110 276 117 239 132 206 C 146 172 166 144 190 121 C 214 97 243 79 275 66 C 307 53 340 47 376 47 C 410 47 444 53 476 66 C 508 79 536 97 561 121 C 585 144 605 172 620 206 C 634 239 642 276 642 318 Z M 219 733 C 242 751 266 772 290 797 C 314 822 335 847 352 871 C 355 875 359 879 363 882 C 367 884 371 886 375 886 C 378 886 382 884 386 882 C 390 879 394 875 398 871 C 414 847 435 822 459 798 C 483 773 507 752 531 734 L 487 715 C 467 728 447 742 427 757 C 407 771 388 787 372 804 C 338 771 300 741 260 715 L 219 733 Z" unicode="Ô" />
<glyph horiz-adv-x="752" d="M 42 320 C 42 369 51 414 69 454 C 87 494 112 529 143 558 C 173 587 209 609 249 625 C 289 641 332 649 376 649 C 420 649 462 641 502 625 C 542 609 578 587 609 558 C 639 529 664 494 682 454 C 700 414 710 369 710 320 C 710 270 700 225 682 185 C 664 144 639 109 609 80 C 578 51 542 29 502 13 C 462 -3 420 -11 376 -11 C 332 -11 289 -3 249 13 C 209 29 173 51 143 80 C 112 109 87 144 69 185 C 51 225 42 270 42 320 Z M 642 318 C 642 358 634 395 620 429 C 605 463 585 491 561 515 C 536 538 508 556 476 569 C 444 582 410 589 376 589 C 340 589 307 582 275 569 C 243 556 214 538 190 515 C 166 491 146 463 132 429 C 117 395 110 358 110 318 C 110 276 117 239 132 206 C 146 172 166 144 190 121 C 214 97 243 79 275 66 C 307 53 340 47 376 47 C 410 47 444 53 476 66 C 508 79 536 97 561 121 C 585 144 605 172 620 206 C 634 239 642 276 642 318 Z M 225 737 C 231 748 239 760 249 773 C 258 786 267 798 277 809 C 286 819 295 828 305 835 C 314 842 322 846 329 846 C 336 846 345 843 355 838 C 365 833 375 828 385 822 C 395 816 404 810 412 805 C 420 800 427 798 431 798 C 435 798 441 800 447 805 C 453 809 460 815 466 822 C 472 828 478 835 484 842 C 490 849 494 855 498 860 L 542 841 C 535 829 527 817 518 804 C 508 791 499 779 490 769 C 480 758 471 749 462 742 C 452 735 444 732 438 732 C 430 732 422 734 412 739 C 402 744 392 749 382 755 C 372 761 363 766 355 771 C 347 776 340 779 336 779 C 330 779 325 776 319 772 C 313 767 306 761 300 755 C 294 748 288 741 282 734 C 276 727 272 721 269 717 L 225 737 Z" unicode="Õ" />
<glyph horiz-adv-x="752" d="M 42 320 C 42 369 51 414 69 454 C 87 494 112 529 143 558 C 173 587 209 609 249 625 C 289 641 332 649 376 649 C 420 649 462 641 502 625 C 542 609 578 587 609 558 C 639 529 664 494 682 454 C 700 414 710 369 710 320 C 710 270 700 225 682 185 C 664 144 639 109 609 80 C 578 51 542 29 502 13 C 462 -3 420 -11 376 -11 C 332 -11 289 -3 249 13 C 209 29 173 51 143 80 C 112 109 87 144 69 185 C 51 225 42 270 42 320 Z M 642 318 C 642 358 634 395 620 429 C 605 463 585 491 561 515 C 536 538 508 556 476 569 C 444 582 410 589 376 589 C 340 589 307 582 275 569 C 243 556 214 538 190 515 C 166 491 146 463 132 429 C 117 395 110 358 110 318 C 110 276 117 239 132 206 C 146 172 166 144 190 121 C 214 97 243 79 275 66 C 307 53 340 47 376 47 C 410 47 444 53 476 66 C 508 79 536 97 561 121 C 585 144 605 172 620 206 C 634 239 642 276 642 318 Z M 260 763 C 260 774 264 784 272 792 C 280 800 290 805 302 805 C 313 805 323 800 331 792 C 339 784 344 774 344 763 C 344 751 339 741 331 733 C 323 725 313 721 302 721 C 290 721 280 725 272 733 C 264 741 260 751 260 763 Z M 408 763 C 408 774 412 784 420 792 C 428 800 438 805 450 805 C 461 805 471 800 479 792 C 487 784 492 774 492 763 C 492 751 487 741 479 733 C 471 725 461 721 450 721 C 438 721 428 725 420 733 C 412 741 408 751 408 763 Z" unicode="Ö" />
<glyph horiz-adv-x="476" d="M 208 272 L 83 398 L 114 430 L 240 304 L 365 428 L 396 397 L 272 272 L 397 146 L 366 115 L 240 241 L 114 114 L 82 146 L 208 272 Z" unicode="×" />
<glyph horiz-adv-x="752" d="M 151 73 C 117 102 91 137 71 179 C 51 221 42 268 42 320 C 42 369 51 414 69 454 C 87 494 112 529 143 558 C 173 587 209 609 249 625 C 289 641 332 649 376 649 C 411 649 445 644 478 634 C 510 624 541 610 569 591 L 628 664 L 660 637 L 602 565 C 635 535 661 500 681 459 C 700 417 710 371 710 320 C 710 270 700 225 682 185 C 664 144 639 109 609 80 C 578 51 542 29 502 13 C 462 -3 420 -11 376 -11 C 340 -11 306 -6 274 4 C 242 14 212 28 184 47 L 124 -28 L 92 0 L 151 73 Z M 642 318 C 642 359 634 396 620 430 C 606 463 586 491 562 515 L 223 95 C 268 63 319 47 376 47 C 410 47 444 53 476 66 C 508 79 536 97 561 121 C 585 144 605 172 620 206 C 634 239 642 276 642 318 Z M 529 542 C 507 557 483 569 457 577 C 431 585 404 589 376 589 C 340 589 307 582 275 569 C 243 556 214 538 190 515 C 166 491 146 463 132 429 C 117 395 110 358 110 318 C 110 276 117 239 131 206 C 145 173 165 145 190 122 L 529 542 Z" unicode="Ø" />
<glyph horiz-adv-x="636" d="M 69 638 L 136 638 L 136 227 C 136 171 152 127 184 96 C 216 64 261 49 319 49 C 377 49 422 64 454 96 C 486 127 502 171 502 227 L 502 638 L 567 638 L 567 221 C 567 185 561 152 549 124 C 537 95 520 71 498 51 C 476 31 449 15 419 5 C 388 -5 354 -11 318 -11 C 280 -11 246 -5 216 5 C 186 15 160 31 138 51 C 116 71 99 95 87 124 C 75 152 69 185 69 221 L 69 638 Z M 212 830 C 209 833 207 836 205 840 C 203 843 202 846 202 850 C 202 852 203 856 206 860 C 208 864 212 868 216 872 C 220 876 224 879 228 882 C 232 884 235 886 239 886 C 242 886 246 884 250 882 C 254 879 258 875 262 871 C 279 847 300 822 324 798 C 348 773 372 752 395 734 L 351 715 C 325 731 300 749 277 768 C 253 786 232 807 212 830 Z" unicode="Ù" />
<glyph horiz-adv-x="636" d="M 69 638 L 136 638 L 136 227 C 136 171 152 127 184 96 C 216 64 261 49 319 49 C 377 49 422 64 454 96 C 486 127 502 171 502 227 L 502 638 L 567 638 L 567 221 C 567 185 561 152 549 124 C 537 95 520 71 498 51 C 476 31 449 15 419 5 C 388 -5 354 -11 318 -11 C 280 -11 246 -5 216 5 C 186 15 160 31 138 51 C 116 71 99 95 87 124 C 75 152 69 185 69 221 L 69 638 Z M 245 733 C 268 751 292 773 316 798 C 340 823 361 848 379 872 C 381 876 385 879 389 882 C 393 884 397 886 401 886 C 403 886 407 884 411 882 C 415 879 419 876 423 872 C 427 868 430 865 433 861 C 435 857 437 853 437 851 C 437 848 436 845 434 842 C 432 838 429 835 426 832 C 406 809 385 788 361 769 C 337 749 312 731 286 715 L 245 733 Z" unicode="Ú" />
<glyph horiz-adv-x="636" d="M 69 638 L 136 638 L 136 227 C 136 171 152 127 184 96 C 216 64 261 49 319 49 C 377 49 422 64 454 96 C 486 127 502 171 502 227 L 502 638 L 567 638 L 567 221 C 567 185 561 152 549 124 C 537 95 520 71 498 51 C 476 31 449 15 419 5 C 388 -5 354 -11 318 -11 C 280 -11 246 -5 216 5 C 186 15 160 31 138 51 C 116 71 99 95 87 124 C 75 152 69 185 69 221 L 69 638 Z M 165 733 C 188 751 212 772 236 797 C 260 822 281 847 298 871 C 301 875 305 879 309 882 C 313 884 317 886 321 886 C 324 886 328 884 332 882 C 336 879 340 875 344 871 C 360 847 381 822 405 798 C 429 773 453 752 477 734 L 433 715 C 413 728 393 742 373 757 C 353 771 334 787 318 804 C 284 771 246 741 206 715 L 165 733 Z" unicode="Û" />
<glyph horiz-adv-x="636" d="M 69 638 L 136 638 L 136 227 C 136 171 152 127 184 96 C 216 64 261 49 319 49 C 377 49 422 64 454 96 C 486 127 502 171 502 227 L 502 638 L 567 638 L 567 221 C 567 185 561 152 549 124 C 537 95 520 71 498 51 C 476 31 449 15 419 5 C 388 -5 354 -11 318 -11 C 280 -11 246 -5 216 5 C 186 15 160 31 138 51 C 116 71 99 95 87 124 C 75 152 69 185 69 221 L 69 638 Z M 207 763 C 207 774 211 784 219 792 C 227 800 237 805 249 805 C 260 805 270 800 278 792 C 286 784 291 774 291 763 C 291 751 286 741 278 733 C 270 725 260 721 249 721 C 237 721 227 725 219 733 C 211 741 207 751 207 763 Z M 355 763 C 355 774 359 784 367 792 C 375 800 385 805 397 805 C 408 805 418 800 426 792 C 434 784 439 774 439 763 C 439 751 434 741 426 733 C 418 725 408 721 397 721 C 385 721 375 725 367 733 C 359 741 355 751 355 763 Z" unicode="Ü" />
<glyph horiz-adv-x="606" d="M 269 295 C 224 346 181 400 141 457 C 101 514 62 574 26 638 L 101 638 C 129 589 159 540 193 492 C 227 444 264 395 304 347 L 306 347 C 384 441 452 538 510 638 L 580 638 C 543 572 505 512 465 456 C 425 400 381 346 335 295 L 335 0 L 269 0 L 269 295 Z M 240 733 C 263 751 287 773 311 798 C 335 823 356 848 374 872 C 376 876 380 879 384 882 C 388 884 392 886 396 886 C 398 886 402 884 406 882 C 410 879 414 876 418 872 C 422 868 425 865 428 861 C 430 857 432 853 432 851 C 432 848 431 845 429 842 C 427 838 424 835 421 832 C 401 809 380 788 356 769 C 332 749 307 731 281 715 L 240 733 Z" unicode="Ý" />
<glyph horiz-adv-x="471" d="M 136 640 L 136 564 L 247 564 C 271 564 294 560 317 552 C 339 544 359 533 377 518 C 394 503 408 485 418 464 C 428 442 434 418 434 391 C 434 363 428 339 418 318 C 408 296 394 278 377 263 C 360 248 341 237 319 229 C 297 221 274 218 251 218 L 136 218 L 136 0 L 69 0 L 69 640 L 136 640 Z M 240 276 C 256 276 272 278 287 283 C 302 288 315 296 327 306 C 339 316 348 328 355 342 C 362 356 366 373 366 391 C 366 409 362 425 355 439 C 348 453 339 465 327 475 C 315 485 301 492 285 498 C 269 503 253 506 236 506 L 136 506 L 136 276 L 240 276 Z" unicode="Þ" />
<glyph horiz-adv-x="586" d="M 265 90 C 281 76 300 65 321 57 C 341 48 366 44 394 44 C 419 44 440 50 458 63 C 476 75 485 93 485 115 C 485 136 477 153 462 167 C 446 181 426 192 401 202 C 359 217 326 235 304 257 C 281 278 270 307 270 343 C 270 379 283 409 311 431 C 339 453 374 464 417 466 C 421 480 423 496 423 512 C 423 530 420 547 414 565 C 408 582 399 598 387 612 C 375 626 360 637 343 645 C 325 653 305 658 283 658 C 247 658 217 646 195 624 C 172 602 161 567 161 520 L 161 0 L 97 0 L 97 401 L 17 401 L 17 453 L 97 453 L 97 523 C 97 586 114 633 148 665 C 182 696 227 712 282 712 C 314 712 342 707 367 697 C 392 687 413 672 431 654 C 448 636 461 614 471 588 C 480 562 485 534 485 504 C 485 490 484 475 482 459 C 480 443 477 429 473 417 C 427 417 392 411 368 399 C 343 387 331 369 331 345 C 331 324 338 308 352 296 C 366 284 385 274 411 265 C 454 249 488 230 512 208 C 536 185 549 155 549 118 C 549 80 535 49 507 25 C 479 1 441 -10 393 -10 C 365 -10 340 -6 318 1 C 296 8 278 17 265 27 L 265 90 Z" unicode="ß" />
<glyph horiz-adv-x="437" d="M 37 123 C 37 145 41 164 49 181 C 57 197 67 211 81 223 C 95 235 110 244 128 251 C 146 257 164 262 184 264 L 303 275 L 303 318 C 303 346 293 368 275 384 C 256 400 230 408 196 408 C 173 408 151 404 130 398 C 108 392 90 384 76 374 L 63 427 C 80 439 100 448 123 454 C 146 460 171 463 199 463 C 223 463 245 459 266 453 C 286 446 304 436 319 424 C 334 411 346 395 354 376 C 362 357 367 336 367 312 L 367 105 C 367 82 372 65 384 53 C 395 41 408 33 423 31 L 382 -10 C 366 -6 351 1 336 15 C 321 28 313 46 311 70 C 302 44 286 24 262 10 C 238 -3 211 -10 182 -10 C 160 -10 140 -6 122 0 C 104 7 89 17 77 29 C 64 41 54 55 47 71 C 40 87 37 104 37 123 Z M 303 222 L 196 212 C 164 208 139 199 123 183 C 106 167 98 147 98 123 C 98 100 106 81 123 66 C 139 51 161 44 187 44 C 201 44 215 46 229 52 C 243 57 255 65 266 75 C 277 85 286 97 293 112 C 299 126 303 143 303 161 L 303 222 Z M 107 628 C 105 630 103 633 101 636 C 99 638 98 641 98 644 C 98 649 102 655 110 663 C 118 671 124 675 130 675 C 132 675 136 673 140 671 C 144 669 147 666 150 663 C 164 642 181 621 202 600 C 223 579 243 561 263 546 L 225 529 C 203 543 182 558 162 574 C 142 590 124 608 107 628 Z" unicode="à" />
<glyph horiz-adv-x="437" d="M 37 123 C 37 145 41 164 49 181 C 57 197 67 211 81 223 C 95 235 110 244 128 251 C 146 257 164 262 184 264 L 303 275 L 303 318 C 303 346 293 368 275 384 C 256 400 230 408 196 408 C 173 408 151 404 130 398 C 108 392 90 384 76 374 L 63 427 C 80 439 100 448 123 454 C 146 460 171 463 199 463 C 223 463 245 459 266 453 C 286 446 304 436 319 424 C 334 411 346 395 354 376 C 362 357 367 336 367 312 L 367 105 C 367 82 372 65 384 53 C 395 41 408 33 423 31 L 382 -10 C 366 -6 351 1 336 15 C 321 28 313 46 311 70 C 302 44 286 24 262 10 C 238 -3 211 -10 182 -10 C 160 -10 140 -6 122 0 C 104 7 89 17 77 29 C 64 41 54 55 47 71 C 40 87 37 104 37 123 Z M 303 222 L 196 212 C 164 208 139 199 123 183 C 106 167 98 147 98 123 C 98 100 106 81 123 66 C 139 51 161 44 187 44 C 201 44 215 46 229 52 C 243 57 255 65 266 75 C 277 85 286 97 293 112 C 299 126 303 143 303 161 L 303 222 Z M 146 545 C 165 560 185 578 206 600 C 226 621 244 642 259 663 C 265 671 271 675 278 675 C 283 675 289 671 297 663 C 305 655 309 649 309 645 C 309 641 306 636 300 629 C 282 609 264 591 244 575 C 224 559 203 543 181 529 L 146 545 Z" unicode="á" />
<glyph horiz-adv-x="437" d="M 37 123 C 37 145 41 164 49 181 C 57 197 67 211 81 223 C 95 235 110 244 128 251 C 146 257 164 262 184 264 L 303 275 L 303 318 C 303 346 293 368 275 384 C 256 400 230 408 196 408 C 173 408 151 404 130 398 C 108 392 90 384 76 374 L 63 427 C 80 439 100 448 123 454 C 146 460 171 463 199 463 C 223 463 245 459 266 453 C 286 446 304 436 319 424 C 334 411 346 395 354 376 C 362 357 367 336 367 312 L 367 105 C 367 82 372 65 384 53 C 395 41 408 33 423 31 L 382 -10 C 366 -6 351 1 336 15 C 321 28 313 46 311 70 C 302 44 286 24 262 10 C 238 -3 211 -10 182 -10 C 160 -10 140 -6 122 0 C 104 7 89 17 77 29 C 64 41 54 55 47 71 C 40 87 37 104 37 123 Z M 303 222 L 196 212 C 164 208 139 199 123 183 C 106 167 98 147 98 123 C 98 100 106 81 123 66 C 139 51 161 44 187 44 C 201 44 215 46 229 52 C 243 57 255 65 266 75 C 277 85 286 97 293 112 C 299 126 303 143 303 161 L 303 222 Z M 76 545 C 95 560 115 578 136 600 C 156 621 174 642 189 663 C 195 671 201 675 208 675 C 210 675 214 673 218 671 C 222 669 225 666 228 663 C 242 642 259 621 280 600 C 301 579 321 561 341 546 L 303 530 C 285 540 268 552 252 565 C 235 577 219 591 205 605 C 191 591 176 577 160 565 C 144 552 127 540 110 530 L 76 545 Z" unicode="â" />
<glyph horiz-adv-x="437" d="M 37 123 C 37 145 41 164 49 181 C 57 197 67 211 81 223 C 95 235 110 244 128 251 C 146 257 164 262 184 264 L 303 275 L 303 318 C 303 346 293 368 275 384 C 256 400 230 408 196 408 C 173 408 151 404 130 398 C 108 392 90 384 76 374 L 63 427 C 80 439 100 448 123 454 C 146 460 171 463 199 463 C 223 463 245 459 266 453 C 286 446 304 436 319 424 C 334 411 346 395 354 376 C 362 357 367 336 367 312 L 367 105 C 367 82 372 65 384 53 C 395 41 408 33 423 31 L 382 -10 C 366 -6 351 1 336 15 C 321 28 313 46 311 70 C 302 44 286 24 262 10 C 238 -3 211 -10 182 -10 C 160 -10 140 -6 122 0 C 104 7 89 17 77 29 C 64 41 54 55 47 71 C 40 87 37 104 37 123 Z M 303 222 L 196 212 C 164 208 139 199 123 183 C 106 167 98 147 98 123 C 98 100 106 81 123 66 C 139 51 161 44 187 44 C 201 44 215 46 229 52 C 243 57 255 65 266 75 C 277 85 286 97 293 112 C 299 126 303 143 303 161 L 303 222 Z M 79 548 C 85 558 91 568 99 579 C 107 589 115 599 123 609 C 131 618 139 626 147 632 C 155 638 162 641 168 641 C 174 641 181 638 190 634 C 198 630 207 625 215 620 C 223 615 231 610 238 606 C 245 602 251 600 255 600 C 259 600 263 602 269 606 C 274 610 279 614 285 620 C 290 626 295 632 300 638 C 304 644 308 649 312 653 L 349 636 C 343 626 336 615 328 605 C 320 594 312 584 304 575 C 296 566 288 559 280 553 C 272 547 266 544 260 544 C 254 544 246 546 238 550 C 230 554 221 558 213 563 C 205 568 197 573 190 577 C 182 581 177 584 173 584 C 169 584 164 582 159 578 C 153 574 148 569 143 564 C 138 558 133 552 128 546 C 123 540 119 535 117 531 L 79 548 Z" unicode="ã" />
<glyph horiz-adv-x="437" d="M 37 123 C 37 145 41 164 49 181 C 57 197 67 211 81 223 C 95 235 110 244 128 251 C 146 257 164 262 184 264 L 303 275 L 303 318 C 303 346 293 368 275 384 C 256 400 230 408 196 408 C 173 408 151 404 130 398 C 108 392 90 384 76 374 L 63 427 C 80 439 100 448 123 454 C 146 460 171 463 199 463 C 223 463 245 459 266 453 C 286 446 304 436 319 424 C 334 411 346 395 354 376 C 362 357 367 336 367 312 L 367 105 C 367 82 372 65 384 53 C 395 41 408 33 423 31 L 382 -10 C 366 -6 351 1 336 15 C 321 28 313 46 311 70 C 302 44 286 24 262 10 C 238 -3 211 -10 182 -10 C 160 -10 140 -6 122 0 C 104 7 89 17 77 29 C 64 41 54 55 47 71 C 40 87 37 104 37 123 Z M 303 222 L 196 212 C 164 208 139 199 123 183 C 106 167 98 147 98 123 C 98 100 106 81 123 66 C 139 51 161 44 187 44 C 201 44 215 46 229 52 C 243 57 255 65 266 75 C 277 85 286 97 293 112 C 299 126 303 143 303 161 L 303 222 Z M 105 569 C 105 579 109 587 116 595 C 123 602 131 605 141 605 C 151 605 159 602 166 595 C 173 587 177 579 177 569 C 177 560 173 552 166 544 C 159 537 151 534 141 534 C 131 534 123 537 116 544 C 109 552 105 560 105 569 Z M 231 569 C 231 579 234 587 242 595 C 249 602 257 605 267 605 C 276 605 285 602 292 595 C 299 587 302 579 302 569 C 302 560 299 552 292 544 C 285 537 276 534 267 534 C 257 534 249 537 242 544 C 234 552 231 560 231 569 Z" unicode="ä" />
<glyph horiz-adv-x="437" d="M 37 123 C 37 145 41 164 49 181 C 57 197 67 211 81 223 C 95 235 110 244 128 251 C 146 257 164 262 184 264 L 303 275 L 303 318 C 303 346 293 368 275 384 C 256 400 230 408 196 408 C 173 408 151 404 130 398 C 108 392 90 384 76 374 L 63 427 C 80 439 100 448 123 454 C 146 460 171 463 199 463 C 223 463 245 459 266 453 C 286 446 304 436 319 424 C 334 411 346 395 354 376 C 362 357 367 336 367 312 L 367 105 C 367 82 372 65 384 53 C 395 41 408 33 423 31 L 382 -10 C 366 -6 351 1 336 15 C 321 28 313 46 311 70 C 302 44 286 24 262 10 C 238 -3 211 -10 182 -10 C 160 -10 140 -6 122 0 C 104 7 89 17 77 29 C 64 41 54 55 47 71 C 40 87 37 104 37 123 Z M 303 222 L 196 212 C 164 208 139 199 123 183 C 106 167 98 147 98 123 C 98 100 106 81 123 66 C 139 51 161 44 187 44 C 201 44 215 46 229 52 C 243 57 255 65 266 75 C 277 85 286 97 293 112 C 299 126 303 143 303 161 L 303 222 Z M 114 609 C 114 621 116 632 121 642 C 125 652 132 661 140 669 C 148 677 157 683 167 688 C 177 692 189 695 201 695 C 213 695 224 692 235 688 C 245 683 254 677 262 669 C 270 661 276 652 281 642 C 285 632 288 621 288 609 C 288 585 279 564 262 547 C 245 530 225 522 201 522 C 189 522 177 524 167 529 C 157 533 148 539 140 547 C 132 555 125 564 121 575 C 116 585 114 597 114 609 Z M 248 609 C 248 623 243 634 235 644 C 226 653 215 658 201 658 C 187 658 176 653 167 644 C 158 634 154 623 154 609 C 154 594 158 582 167 573 C 176 563 187 559 201 559 C 215 559 226 563 235 573 C 243 582 248 594 248 609 Z" unicode="å" />
<glyph horiz-adv-x="733" d="M 37 123 C 37 145 41 164 49 181 C 57 198 67 212 81 224 C 95 236 110 245 128 251 C 146 257 164 262 184 264 L 288 274 C 290 292 295 309 303 325 C 301 351 291 371 273 386 C 254 400 228 408 196 408 C 173 408 151 404 130 398 C 108 392 90 384 76 374 L 63 427 C 80 438 100 447 123 453 C 146 459 171 463 199 463 C 231 463 261 456 288 444 C 314 432 333 412 345 384 C 364 409 388 428 416 442 C 444 456 473 463 503 463 C 533 463 561 458 585 448 C 609 438 629 424 646 408 C 662 392 675 373 683 352 C 691 331 696 310 696 288 C 696 282 695 277 695 272 C 695 266 694 261 694 257 L 656 220 L 349 220 C 348 198 352 177 360 157 C 368 136 379 117 395 101 C 411 85 430 71 453 61 C 475 51 501 46 530 46 C 558 46 582 49 604 56 C 626 63 645 72 662 84 L 654 21 C 638 11 619 4 598 -1 C 577 -7 552 -10 522 -10 C 502 -10 483 -7 465 -3 C 446 0 428 7 412 15 C 396 23 381 33 368 45 C 354 57 343 70 335 85 C 327 67 318 52 307 40 C 295 28 283 18 269 11 C 255 3 241 -1 226 -5 C 211 -8 196 -10 182 -10 C 160 -10 140 -6 122 0 C 104 7 89 17 77 29 C 64 41 54 55 47 71 C 40 87 37 104 37 123 Z M 300 136 C 294 149 290 163 288 177 C 286 191 284 205 284 220 L 196 212 C 164 208 140 199 123 183 C 106 167 98 147 98 123 C 98 99 106 80 123 66 C 139 51 161 44 187 44 C 199 44 212 46 224 50 C 236 54 248 60 258 68 C 268 76 277 85 285 97 C 292 108 297 121 300 136 Z M 631 272 C 631 274 632 276 632 279 C 632 281 632 284 632 287 C 632 301 629 316 623 330 C 617 344 609 357 599 369 C 588 380 575 389 559 397 C 543 404 526 408 506 408 C 487 408 469 404 452 396 C 434 388 419 378 406 366 C 392 354 381 339 372 323 C 362 307 356 290 354 272 L 631 272 Z" unicode="æ" />
<glyph horiz-adv-x="453" d="M 211 -139 C 219 -145 228 -149 238 -152 C 248 -155 258 -157 268 -157 C 280 -157 291 -153 301 -145 C 311 -137 316 -126 316 -111 C 316 -95 310 -83 300 -75 C 290 -67 280 -64 272 -64 C 261 -64 254 -61 251 -56 C 248 -50 248 -44 250 -38 L 259 -5 C 229 -3 200 3 173 15 C 146 26 122 42 102 62 C 82 82 66 105 54 133 C 42 161 37 192 37 226 C 37 261 43 293 56 322 C 68 350 85 375 107 395 C 129 415 154 431 183 442 C 212 453 243 459 276 459 C 304 459 330 455 354 449 C 378 442 398 434 416 424 L 403 365 C 367 389 325 402 279 402 C 253 402 230 397 208 389 C 186 380 168 368 152 352 C 136 336 123 318 114 296 C 105 274 101 251 101 225 C 101 199 105 175 115 154 C 124 132 137 114 153 98 C 169 82 188 70 210 62 C 232 53 255 49 281 49 C 304 49 325 51 345 55 C 365 59 384 67 404 79 L 396 18 C 366 2 329 -5 285 -5 L 279 -28 C 287 -28 296 -30 306 -34 C 315 -38 323 -43 331 -50 C 338 -57 344 -66 349 -76 C 353 -86 356 -97 356 -109 C 356 -123 353 -135 348 -145 C 342 -155 335 -163 327 -170 C 319 -177 309 -182 299 -186 C 288 -189 277 -191 267 -191 C 243 -191 222 -184 203 -171 L 211 -139 Z" unicode="ç" />
<glyph horiz-adv-x="486" d="M 37 226 C 37 262 43 295 56 324 C 68 353 85 378 106 399 C 126 419 150 435 176 446 C 202 457 228 463 256 463 C 286 463 314 458 338 448 C 362 438 382 424 399 408 C 415 392 428 373 436 352 C 444 331 449 310 449 288 C 449 282 449 277 449 272 C 449 266 448 261 447 257 L 409 220 L 103 220 C 102 198 105 177 113 157 C 121 136 132 117 148 101 C 164 85 183 71 206 61 C 228 51 254 46 283 46 C 311 46 335 49 357 56 C 379 63 398 72 415 84 L 407 21 C 391 11 373 4 352 -1 C 331 -7 306 -10 276 -10 C 243 -10 212 -4 183 7 C 154 19 129 35 107 56 C 85 76 68 101 56 130 C 43 159 37 191 37 226 Z M 384 272 C 384 274 385 276 385 279 C 385 281 385 284 385 287 C 385 301 382 316 377 330 C 371 344 363 357 353 369 C 342 380 329 389 313 397 C 297 404 279 408 259 408 C 240 408 222 404 205 396 C 187 388 172 378 159 366 C 145 354 134 339 125 323 C 115 307 109 290 107 272 L 384 272 Z M 163 628 C 161 630 159 633 157 636 C 155 638 154 641 154 644 C 154 649 158 655 166 663 C 174 671 180 675 186 675 C 188 675 192 673 196 671 C 200 669 203 666 206 663 C 220 642 237 621 258 600 C 279 579 299 561 319 546 L 281 529 C 259 543 238 558 218 574 C 198 590 180 608 163 628 Z" unicode="è" />
<glyph horiz-adv-x="486" d="M 37 226 C 37 262 43 295 56 324 C 68 353 85 378 106 399 C 126 419 150 435 176 446 C 202 457 228 463 256 463 C 286 463 314 458 338 448 C 362 438 382 424 399 408 C 415 392 428 373 436 352 C 444 331 449 310 449 288 C 449 282 449 277 449 272 C 449 266 448 261 447 257 L 409 220 L 103 220 C 102 198 105 177 113 157 C 121 136 132 117 148 101 C 164 85 183 71 206 61 C 228 51 254 46 283 46 C 311 46 335 49 357 56 C 379 63 398 72 415 84 L 407 21 C 391 11 373 4 352 -1 C 331 -7 306 -10 276 -10 C 243 -10 212 -4 183 7 C 154 19 129 35 107 56 C 85 76 68 101 56 130 C 43 159 37 191 37 226 Z M 384 272 C 384 274 385 276 385 279 C 385 281 385 284 385 287 C 385 301 382 316 377 330 C 371 344 363 357 353 369 C 342 380 329 389 313 397 C 297 404 279 408 259 408 C 240 408 222 404 205 396 C 187 388 172 378 159 366 C 145 354 134 339 125 323 C 115 307 109 290 107 272 L 384 272 Z M 200 545 C 219 560 239 578 260 600 C 280 621 298 642 313 663 C 319 671 325 675 332 675 C 337 675 343 671 351 663 C 359 655 363 649 363 645 C 363 641 360 636 354 629 C 336 609 318 591 298 575 C 278 559 257 543 235 529 L 200 545 Z" unicode="é" />
<glyph horiz-adv-x="486" d="M 37 226 C 37 262 43 295 56 324 C 68 353 85 378 106 399 C 126 419 150 435 176 446 C 202 457 228 463 256 463 C 286 463 314 458 338 448 C 362 438 382 424 399 408 C 415 392 428 373 436 352 C 444 331 449 310 449 288 C 449 282 449 277 449 272 C 449 266 448 261 447 257 L 409 220 L 103 220 C 102 198 105 177 113 157 C 121 136 132 117 148 101 C 164 85 183 71 206 61 C 228 51 254 46 283 46 C 311 46 335 49 357 56 C 379 63 398 72 415 84 L 407 21 C 391 11 373 4 352 -1 C 331 -7 306 -10 276 -10 C 243 -10 212 -4 183 7 C 154 19 129 35 107 56 C 85 76 68 101 56 130 C 43 159 37 191 37 226 Z M 384 272 C 384 274 385 276 385 279 C 385 281 385 284 385 287 C 385 301 382 316 377 330 C 371 344 363 357 353 369 C 342 380 329 389 313 397 C 297 404 279 408 259 408 C 240 408 222 404 205 396 C 187 388 172 378 159 366 C 145 354 134 339 125 323 C 115 307 109 290 107 272 L 384 272 Z M 126 545 C 145 560 165 578 186 600 C 206 621 224 642 239 663 C 245 671 251 675 258 675 C 260 675 264 673 268 671 C 272 669 275 666 278 663 C 292 642 309 621 330 600 C 351 579 371 561 391 546 L 353 530 C 335 540 318 552 302 565 C 285 577 269 591 255 605 C 241 591 226 577 210 565 C 194 552 177 540 160 530 L 126 545 Z" unicode="ê" />
<glyph horiz-adv-x="486" d="M 37 226 C 37 262 43 295 56 324 C 68 353 85 378 106 399 C 126 419 150 435 176 446 C 202 457 228 463 256 463 C 286 463 314 458 338 448 C 362 438 382 424 399 408 C 415 392 428 373 436 352 C 444 331 449 310 449 288 C 449 282 449 277 449 272 C 449 266 448 261 447 257 L 409 220 L 103 220 C 102 198 105 177 113 157 C 121 136 132 117 148 101 C 164 85 183 71 206 61 C 228 51 254 46 283 46 C 311 46 335 49 357 56 C 379 63 398 72 415 84 L 407 21 C 391 11 373 4 352 -1 C 331 -7 306 -10 276 -10 C 243 -10 212 -4 183 7 C 154 19 129 35 107 56 C 85 76 68 101 56 130 C 43 159 37 191 37 226 Z M 384 272 C 384 274 385 276 385 279 C 385 281 385 284 385 287 C 385 301 382 316 377 330 C 371 344 363 357 353 369 C 342 380 329 389 313 397 C 297 404 279 408 259 408 C 240 408 222 404 205 396 C 187 388 172 378 159 366 C 145 354 134 339 125 323 C 115 307 109 290 107 272 L 384 272 Z M 156 569 C 156 579 160 587 167 595 C 174 602 182 605 192 605 C 202 605 210 602 217 595 C 224 587 228 579 228 569 C 228 560 224 552 217 544 C 210 537 202 534 192 534 C 182 534 174 537 167 544 C 160 552 156 560 156 569 Z M 282 569 C 282 579 285 587 293 595 C 300 602 308 605 318 605 C 327 605 336 602 343 595 C 350 587 353 579 353 569 C 353 560 350 552 343 544 C 336 537 327 534 318 534 C 308 534 300 537 293 544 C 285 552 282 560 282 569 Z" unicode="ë" />
<glyph horiz-adv-x="206" d="M 135 453 L 135 0 L 71 0 L 71 453 L 135 453 Z M 9 628 C 7 630 5 633 3 636 C 1 638 0 641 0 644 C 0 649 4 655 12 663 C 20 671 26 675 32 675 C 34 675 38 673 42 671 C 46 669 49 666 52 663 C 66 642 83 621 104 600 C 125 579 145 561 165 546 L 127 529 C 105 543 84 558 64 574 C 44 590 26 608 9 628 Z" unicode="ì" />
<glyph horiz-adv-x="206" d="M 135 453 L 135 0 L 71 0 L 71 453 L 135 453 Z M 45 545 C 64 560 84 578 105 600 C 125 621 143 642 158 663 C 164 671 170 675 177 675 C 182 675 188 671 196 663 C 204 655 208 649 208 645 C 208 641 205 636 199 629 C 181 609 163 591 143 575 C 123 559 102 543 80 529 L 45 545 Z" unicode="í" />
<glyph horiz-adv-x="206" d="M 135 453 L 135 0 L 71 0 L 71 453 L 135 453 Z M -28 545 C -8 560 11 578 32 600 C 52 621 70 642 85 663 C 91 671 97 675 104 675 C 106 675 110 673 114 671 C 118 669 121 666 124 663 C 138 642 155 621 176 600 C 197 579 217 561 237 546 L 199 530 C 181 540 164 552 148 565 C 131 577 115 591 101 605 C 87 591 72 577 56 565 C 40 552 23 540 6 530 L -28 545 Z" unicode="î" />
<glyph horiz-adv-x="206" d="M 135 453 L 135 0 L 71 0 L 71 453 L 135 453 Z M 5 569 C 5 579 9 587 16 595 C 23 602 31 605 41 605 C 51 605 59 602 66 595 C 73 587 77 579 77 569 C 77 560 73 552 66 544 C 59 537 51 534 41 534 C 31 534 23 537 16 544 C 9 552 5 560 5 569 Z M 131 569 C 131 579 134 587 142 595 C 149 602 157 605 167 605 C 176 605 185 602 192 595 C 199 587 202 579 202 569 C 202 560 199 552 192 544 C 185 537 176 534 167 534 C 157 534 149 537 142 544 C 134 552 131 560 131 569 Z" unicode="ï" />
<glyph horiz-adv-x="495" d="M 37 195 C 37 219 40 241 48 263 C 56 284 66 303 80 320 C 93 337 109 352 127 365 C 145 378 166 388 188 396 C 206 402 226 407 250 413 C 274 418 295 422 313 424 L 253 559 L 164 523 L 145 571 L 232 607 L 185 712 L 252 712 L 289 629 L 368 662 L 387 614 L 309 582 L 424 321 C 431 305 438 286 444 264 C 450 242 453 224 453 209 C 453 173 447 141 436 114 C 424 86 409 63 390 45 C 370 26 348 12 322 3 C 296 -6 270 -11 242 -11 C 212 -11 185 -5 160 4 C 135 14 113 29 95 47 C 77 65 62 87 52 113 C 42 138 37 165 37 195 Z M 389 208 C 389 218 387 229 384 243 C 380 257 376 271 370 286 C 364 301 358 316 352 331 C 346 346 340 360 334 372 C 317 370 297 367 275 363 C 253 358 234 353 218 347 C 139 318 100 267 100 195 C 100 173 103 152 111 134 C 118 116 128 100 141 87 C 153 73 168 63 185 56 C 202 48 221 45 241 45 C 260 45 279 48 297 55 C 315 62 330 73 344 87 C 358 101 369 118 377 138 C 385 158 389 182 389 208 Z" unicode="ð" />
<glyph horiz-adv-x="498" d="M 118 453 L 118 385 L 119 385 C 126 406 141 424 165 440 C 189 455 222 463 266 463 C 290 463 313 459 334 452 C 355 444 373 434 389 421 C 405 407 417 391 426 371 C 434 351 439 329 439 305 L 439 0 L 376 0 L 376 299 C 376 331 365 357 343 377 C 321 397 291 408 251 408 C 211 408 179 397 156 377 C 133 357 122 331 122 299 L 122 0 L 59 0 L 59 453 L 118 453 Z M 120 548 C 126 558 132 568 140 579 C 148 589 156 599 164 609 C 172 618 180 626 188 632 C 196 638 203 641 209 641 C 215 641 222 638 231 634 C 239 630 248 625 256 620 C 264 615 272 610 279 606 C 286 602 292 600 296 600 C 300 600 304 602 310 606 C 315 610 320 614 326 620 C 331 626 336 632 341 638 C 345 644 349 649 353 653 L 390 636 C 384 626 377 615 369 605 C 361 594 353 584 345 575 C 337 566 329 559 321 553 C 313 547 307 544 301 544 C 295 544 287 546 279 550 C 271 554 262 558 254 563 C 246 568 238 573 231 577 C 223 581 218 584 214 584 C 210 584 205 582 200 578 C 194 574 189 569 184 564 C 179 558 174 552 169 546 C 164 540 160 535 158 531 L 120 548 Z" unicode="ñ" />
<glyph horiz-adv-x="551" d="M 37 226 C 37 260 43 292 55 321 C 67 350 84 375 106 396 C 127 417 152 433 181 445 C 210 457 242 463 276 463 C 310 463 341 457 370 445 C 399 433 424 417 446 396 C 467 375 484 350 496 321 C 508 292 514 260 514 226 C 514 191 508 159 496 131 C 484 102 467 77 446 56 C 424 35 399 19 370 7 C 341 -4 310 -10 276 -10 C 242 -10 210 -4 181 7 C 152 19 127 35 106 56 C 84 77 67 102 55 131 C 43 159 37 191 37 226 Z M 450 225 C 450 251 445 276 436 298 C 427 320 415 339 399 355 C 383 371 365 383 344 392 C 322 401 300 406 276 406 C 252 406 229 401 208 392 C 186 383 168 371 152 355 C 136 339 123 320 114 298 C 105 276 101 251 101 225 C 101 198 105 174 114 152 C 123 130 136 111 152 95 C 168 79 186 66 208 58 C 229 49 252 45 276 45 C 300 45 322 49 344 58 C 365 66 383 79 399 95 C 415 111 427 130 436 152 C 445 174 450 198 450 225 Z M 182 628 C 180 630 178 633 176 636 C 174 638 173 641 173 644 C 173 649 177 655 185 663 C 193 671 199 675 205 675 C 207 675 211 673 215 671 C 219 669 222 666 225 663 C 239 642 256 621 277 600 C 298 579 318 561 338 546 L 300 529 C 278 543 257 558 237 574 C 217 590 199 608 182 628 Z" unicode="ò" />
<glyph horiz-adv-x="551" d="M 37 226 C 37 260 43 292 55 321 C 67 350 84 375 106 396 C 127 417 152 433 181 445 C 210 457 242 463 276 463 C 310 463 341 457 370 445 C 399 433 424 417 446 396 C 467 375 484 350 496 321 C 508 292 514 260 514 226 C 514 191 508 159 496 131 C 484 102 467 77 446 56 C 424 35 399 19 370 7 C 341 -4 310 -10 276 -10 C 242 -10 210 -4 181 7 C 152 19 127 35 106 56 C 84 77 67 102 55 131 C 43 159 37 191 37 226 Z M 450 225 C 450 251 445 276 436 298 C 427 320 415 339 399 355 C 383 371 365 383 344 392 C 322 401 300 406 276 406 C 252 406 229 401 208 392 C 186 383 168 371 152 355 C 136 339 123 320 114 298 C 105 276 101 251 101 225 C 101 198 105 174 114 152 C 123 130 136 111 152 95 C 168 79 186 66 208 58 C 229 49 252 45 276 45 C 300 45 322 49 344 58 C 365 66 383 79 399 95 C 415 111 427 130 436 152 C 445 174 450 198 450 225 Z M 213 545 C 232 560 252 578 273 600 C 293 621 311 642 326 663 C 332 671 338 675 345 675 C 350 675 356 671 364 663 C 372 655 376 649 376 645 C 376 641 373 636 367 629 C 349 609 331 591 311 575 C 291 559 270 543 248 529 L 213 545 Z" unicode="ó" />
<glyph horiz-adv-x="551" d="M 37 226 C 37 260 43 292 55 321 C 67 350 84 375 106 396 C 127 417 152 433 181 445 C 210 457 242 463 276 463 C 310 463 341 457 370 445 C 399 433 424 417 446 396 C 467 375 484 350 496 321 C 508 292 514 260 514 226 C 514 191 508 159 496 131 C 484 102 467 77 446 56 C 424 35 399 19 370 7 C 341 -4 310 -10 276 -10 C 242 -10 210 -4 181 7 C 152 19 127 35 106 56 C 84 77 67 102 55 131 C 43 159 37 191 37 226 Z M 450 225 C 450 251 445 276 436 298 C 427 320 415 339 399 355 C 383 371 365 383 344 392 C 322 401 300 406 276 406 C 252 406 229 401 208 392 C 186 383 168 371 152 355 C 136 339 123 320 114 298 C 105 276 101 251 101 225 C 101 198 105 174 114 152 C 123 130 136 111 152 95 C 168 79 186 66 208 58 C 229 49 252 45 276 45 C 300 45 322 49 344 58 C 365 66 383 79 399 95 C 415 111 427 130 436 152 C 445 174 450 198 450 225 Z M 144 545 C 163 560 183 578 204 600 C 224 621 242 642 257 663 C 263 671 269 675 276 675 C 278 675 282 673 286 671 C 290 669 293 666 296 663 C 310 642 327 621 348 600 C 369 579 389 561 409 546 L 371 530 C 353 540 336 552 320 565 C 303 577 287 591 273 605 C 259 591 244 577 228 565 C 212 552 195 540 178 530 L 144 545 Z" unicode="ô" />
<glyph horiz-adv-x="551" d="M 37 226 C 37 260 43 292 55 321 C 67 350 84 375 106 396 C 127 417 152 433 181 445 C 210 457 242 463 276 463 C 310 463 341 457 370 445 C 399 433 424 417 446 396 C 467 375 484 350 496 321 C 508 292 514 260 514 226 C 514 191 508 159 496 131 C 484 102 467 77 446 56 C 424 35 399 19 370 7 C 341 -4 310 -10 276 -10 C 242 -10 210 -4 181 7 C 152 19 127 35 106 56 C 84 77 67 102 55 131 C 43 159 37 191 37 226 Z M 450 225 C 450 251 445 276 436 298 C 427 320 415 339 399 355 C 383 371 365 383 344 392 C 322 401 300 406 276 406 C 252 406 229 401 208 392 C 186 383 168 371 152 355 C 136 339 123 320 114 298 C 105 276 101 251 101 225 C 101 198 105 174 114 152 C 123 130 136 111 152 95 C 168 79 186 66 208 58 C 229 49 252 45 276 45 C 300 45 322 49 344 58 C 365 66 383 79 399 95 C 415 111 427 130 436 152 C 445 174 450 198 450 225 Z M 147 548 C 153 558 159 568 167 579 C 175 589 183 599 191 609 C 199 618 207 626 215 632 C 223 638 230 641 236 641 C 242 641 249 638 258 634 C 266 630 275 625 283 620 C 291 615 299 610 306 606 C 313 602 319 600 323 600 C 327 600 331 602 337 606 C 342 610 347 614 353 620 C 358 626 363 632 368 638 C 372 644 376 649 380 653 L 417 636 C 411 626 404 615 396 605 C 388 594 380 584 372 575 C 364 566 356 559 348 553 C 340 547 334 544 328 544 C 322 544 314 546 306 550 C 298 554 289 558 281 563 C 273 568 265 573 258 577 C 250 581 245 584 241 584 C 237 584 232 582 227 578 C 221 574 216 569 211 564 C 206 558 201 552 196 546 C 191 540 187 535 185 531 L 147 548 Z" unicode="õ" />
<glyph horiz-adv-x="551" d="M 37 226 C 37 260 43 292 55 321 C 67 350 84 375 106 396 C 127 417 152 433 181 445 C 210 457 242 463 276 463 C 310 463 341 457 370 445 C 399 433 424 417 446 396 C 467 375 484 350 496 321 C 508 292 514 260 514 226 C 514 191 508 159 496 131 C 484 102 467 77 446 56 C 424 35 399 19 370 7 C 341 -4 310 -10 276 -10 C 242 -10 210 -4 181 7 C 152 19 127 35 106 56 C 84 77 67 102 55 131 C 43 159 37 191 37 226 Z M 450 225 C 450 251 445 276 436 298 C 427 320 415 339 399 355 C 383 371 365 383 344 392 C 322 401 300 406 276 406 C 252 406 229 401 208 392 C 186 383 168 371 152 355 C 136 339 123 320 114 298 C 105 276 101 251 101 225 C 101 198 105 174 114 152 C 123 130 136 111 152 95 C 168 79 186 66 208 58 C 229 49 252 45 276 45 C 300 45 322 49 344 58 C 365 66 383 79 399 95 C 415 111 427 130 436 152 C 445 174 450 198 450 225 Z M 178 569 C 178 579 182 587 189 595 C 196 602 204 605 214 605 C 224 605 232 602 239 595 C 246 587 250 579 250 569 C 250 560 246 552 239 544 C 232 537 224 534 214 534 C 204 534 196 537 189 544 C 182 552 178 560 178 569 Z M 304 569 C 304 579 307 587 315 595 C 322 602 330 605 340 605 C 349 605 358 602 365 595 C 372 587 375 579 375 569 C 375 560 372 552 365 544 C 358 537 349 534 340 534 C 330 534 322 537 315 544 C 307 552 304 560 304 569 Z" unicode="ö" />
<glyph horiz-adv-x="463" d="M 188 155 C 188 167 192 177 200 185 C 208 193 219 198 231 198 C 242 198 252 193 261 185 C 269 177 274 167 274 155 C 274 143 269 133 261 125 C 252 117 242 113 231 113 C 219 113 208 117 200 125 C 192 133 188 143 188 155 Z M 188 398 C 188 410 192 420 200 428 C 208 436 219 441 231 441 C 242 441 252 436 261 428 C 269 420 274 410 274 398 C 274 386 269 376 261 368 C 252 360 242 356 231 356 C 219 356 208 360 200 368 C 192 376 188 386 188 398 Z M 418 304 L 418 250 L 44 250 L 44 304 L 418 304 Z" unicode="÷" />
<glyph horiz-adv-x="551" d="M 109 53 C 86 74 68 99 56 128 C 43 157 37 190 37 226 C 37 260 43 292 55 321 C 67 350 84 375 106 396 C 127 417 152 433 181 445 C 210 457 242 463 276 463 C 325 463 369 450 409 426 L 452 479 L 483 454 L 441 401 C 464 379 482 354 495 324 C 507 294 514 262 514 226 C 514 191 508 159 496 131 C 484 102 467 77 446 56 C 424 35 399 19 370 7 C 341 -4 310 -10 276 -10 C 250 -10 226 -6 204 0 C 181 6 160 16 141 28 L 97 -27 L 66 -1 L 109 53 Z M 450 225 C 450 251 445 274 437 296 C 429 318 417 337 402 353 L 178 74 C 206 54 239 45 276 45 C 300 45 322 49 344 58 C 365 66 383 79 399 95 C 415 111 427 130 436 152 C 445 174 450 198 450 225 Z M 371 378 C 343 396 311 406 276 406 C 252 406 229 401 208 392 C 186 383 168 371 152 355 C 136 339 123 320 114 298 C 105 276 101 251 101 225 C 101 199 105 176 113 155 C 121 133 132 115 147 100 L 371 378 Z" unicode="ø" />
<glyph horiz-adv-x="498" d="M 59 453 L 122 453 L 122 154 C 122 122 132 95 154 75 C 176 55 207 45 247 45 C 287 45 318 55 341 75 C 364 95 376 122 376 154 L 376 453 L 439 453 L 439 0 L 380 0 L 380 68 L 379 68 C 371 46 356 28 332 13 C 308 -2 275 -10 232 -10 C 207 -10 184 -6 163 1 C 142 8 124 18 108 32 C 92 45 80 61 72 81 C 63 101 59 123 59 148 L 59 453 Z M 151 628 C 149 630 147 633 145 636 C 143 638 142 641 142 644 C 142 649 146 655 154 663 C 162 671 168 675 174 675 C 176 675 180 673 184 671 C 188 669 191 666 194 663 C 208 642 225 621 246 600 C 267 579 287 561 307 546 L 269 529 C 247 543 226 558 206 574 C 186 590 168 608 151 628 Z" unicode="ù" />
<glyph horiz-adv-x="498" d="M 59 453 L 122 453 L 122 154 C 122 122 132 95 154 75 C 176 55 207 45 247 45 C 287 45 318 55 341 75 C 364 95 376 122 376 154 L 376 453 L 439 453 L 439 0 L 380 0 L 380 68 L 379 68 C 371 46 356 28 332 13 C 308 -2 275 -10 232 -10 C 207 -10 184 -6 163 1 C 142 8 124 18 108 32 C 92 45 80 61 72 81 C 63 101 59 123 59 148 L 59 453 Z M 194 545 C 213 560 233 578 254 600 C 274 621 292 642 307 663 C 313 671 319 675 326 675 C 331 675 337 671 345 663 C 353 655 357 649 357 645 C 357 641 354 636 348 629 C 330 609 312 591 292 575 C 272 559 251 543 229 529 L 194 545 Z" unicode="ú" />
<glyph horiz-adv-x="498" d="M 59 453 L 122 453 L 122 154 C 122 122 132 95 154 75 C 176 55 207 45 247 45 C 287 45 318 55 341 75 C 364 95 376 122 376 154 L 376 453 L 439 453 L 439 0 L 380 0 L 380 68 L 379 68 C 371 46 356 28 332 13 C 308 -2 275 -10 232 -10 C 207 -10 184 -6 163 1 C 142 8 124 18 108 32 C 92 45 80 61 72 81 C 63 101 59 123 59 148 L 59 453 Z M 117 545 C 136 560 156 578 177 600 C 197 621 215 642 230 663 C 236 671 242 675 249 675 C 251 675 255 673 259 671 C 263 669 266 666 269 663 C 283 642 300 621 321 600 C 342 579 362 561 382 546 L 344 530 C 326 540 309 552 293 565 C 276 577 260 591 246 605 C 232 591 217 577 201 565 C 185 552 168 540 151 530 L 117 545 Z" unicode="û" />
<glyph horiz-adv-x="498" d="M 59 453 L 122 453 L 122 154 C 122 122 132 95 154 75 C 176 55 207 45 247 45 C 287 45 318 55 341 75 C 364 95 376 122 376 154 L 376 453 L 439 453 L 439 0 L 380 0 L 380 68 L 379 68 C 371 46 356 28 332 13 C 308 -2 275 -10 232 -10 C 207 -10 184 -6 163 1 C 142 8 124 18 108 32 C 92 45 80 61 72 81 C 63 101 59 123 59 148 L 59 453 Z M 152 569 C 152 579 156 587 163 595 C 170 602 178 605 188 605 C 198 605 206 602 213 595 C 220 587 224 579 224 569 C 224 560 220 552 213 544 C 206 537 198 534 188 534 C 178 534 170 537 163 544 C 156 552 152 560 152 569 Z M 278 569 C 278 579 281 587 289 595 C 296 602 304 605 314 605 C 323 605 332 602 339 595 C 346 587 349 579 349 569 C 349 560 346 552 339 544 C 332 537 323 534 314 534 C 304 534 296 537 289 544 C 281 552 278 560 278 569 Z" unicode="ü" />
<glyph horiz-adv-x="468" d="M 1 -192 C 21 -184 40 -174 58 -163 C 76 -151 93 -138 110 -122 C 126 -106 142 -88 158 -66 C 174 -44 190 -19 206 10 C 168 84 134 158 105 232 C 75 305 49 379 26 453 L 90 453 C 112 380 135 313 161 251 C 187 189 212 131 238 77 L 240 77 C 248 95 259 119 271 149 C 283 178 295 210 307 244 C 319 278 332 313 344 349 C 356 385 366 419 374 453 L 434 453 C 424 414 412 374 399 334 C 385 294 372 255 358 218 C 344 181 331 147 318 116 C 305 85 294 59 285 39 C 267 0 248 -34 230 -64 C 211 -93 192 -118 172 -140 C 152 -162 131 -180 109 -195 C 87 -210 65 -223 42 -233 L 1 -192 Z M 187 545 C 206 560 226 578 247 600 C 267 621 285 642 300 663 C 306 671 312 675 319 675 C 324 675 330 671 338 663 C 346 655 350 649 350 645 C 350 641 347 636 341 629 C 323 609 305 591 285 575 C 265 559 244 543 222 529 L 187 545 Z" unicode="ý" />
<glyph horiz-adv-x="527" d="M 127 712 L 127 411 C 141 425 159 438 182 448 C 204 458 232 463 264 463 C 292 463 320 457 347 447 C 374 436 398 420 419 400 C 440 380 457 355 470 326 C 483 296 490 263 490 227 C 490 192 484 160 472 131 C 460 102 444 77 423 56 C 402 35 377 19 349 7 C 321 -4 290 -10 257 -10 C 244 -10 231 -8 218 -6 C 205 -4 193 -1 181 3 C 169 7 159 11 150 16 C 140 21 133 26 127 32 L 127 -231 L 64 -231 L 64 712 L 127 712 Z M 426 225 C 426 251 421 276 412 298 C 403 320 391 339 375 355 C 359 371 341 383 320 392 C 299 401 276 406 252 406 C 223 406 198 400 177 389 C 156 377 139 364 127 349 L 127 95 C 137 83 153 72 175 61 C 196 50 222 45 252 45 C 276 45 299 49 320 58 C 341 66 359 79 375 95 C 391 111 403 130 412 152 C 421 174 426 198 426 225 Z" unicode="þ" />
<glyph horiz-adv-x="468" d="M 1 -192 C 21 -184 40 -174 58 -163 C 76 -151 93 -138 110 -122 C 126 -106 142 -88 158 -66 C 174 -44 190 -19 206 10 C 168 84 134 158 105 232 C 75 305 49 379 26 453 L 90 453 C 112 380 135 313 161 251 C 187 189 212 131 238 77 L 240 77 C 248 95 259 119 271 149 C 283 178 295 210 307 244 C 319 278 332 313 344 349 C 356 385 366 419 374 453 L 434 453 C 424 414 412 374 399 334 C 385 294 372 255 358 218 C 344 181 331 147 318 116 C 305 85 294 59 285 39 C 267 0 248 -34 230 -64 C 211 -93 192 -118 172 -140 C 152 -162 131 -180 109 -195 C 87 -210 65 -223 42 -233 L 1 -192 Z M 143 566 C 143 576 147 584 154 592 C 161 599 169 602 179 602 C 189 602 197 599 204 592 C 211 584 215 576 215 566 C 215 557 211 549 204 541 C 197 534 189 531 179 531 C 169 531 161 534 154 541 C 147 549 143 557 143 566 Z M 269 566 C 269 576 272 584 280 592 C 287 599 295 602 305 602 C 314 602 323 599 330 592 C 337 584 340 576 340 566 C 340 557 337 549 330 541 C 323 534 314 531 305 531 C 295 531 287 534 280 541 C 272 549 269 557 269 566 Z" unicode="ÿ" />
<glyph horiz-adv-x="206" d="M 135 453 L 135 0 L 71 0 L 71 453 L 135 453 Z" unicode="ı" />
<glyph horiz-adv-x="437" d="M 14 223 L 14 282 L 67 313 L 67 638 L 134 638 L 134 352 L 301 448 L 301 388 L 134 292 L 134 58 L 430 58 L 430 0 L 67 0 L 67 254 L 14 223 Z" unicode="Ł" />
<glyph horiz-adv-x="213" d="M 65 309 L 12 279 L 12 338 L 65 369 L 65 712 L 128 712 L 128 406 L 200 448 L 200 388 L 128 346 L 128 106 C 128 84 133 67 145 53 C 157 39 170 31 186 28 L 143 -15 C 134 -12 125 -8 116 -3 C 106 2 98 9 91 18 C 83 27 77 38 72 52 C 67 65 65 81 65 99 L 65 309 Z" unicode="ł" />
<glyph horiz-adv-x="826" d="M 42 319 C 42 369 51 415 70 455 C 89 495 114 530 145 558 C 176 586 212 607 252 622 C 292 636 334 644 376 644 C 404 644 430 642 454 638 L 783 638 L 783 580 L 518 580 L 518 350 L 736 350 L 736 292 L 518 292 L 518 58 L 819 58 L 819 0 L 458 0 C 434 -4 406 -6 376 -6 C 333 -6 292 1 252 16 C 212 31 176 53 145 81 C 114 109 89 143 70 183 C 51 223 42 268 42 319 Z M 451 578 C 429 582 406 584 382 584 C 346 584 312 578 279 566 C 246 554 217 536 192 513 C 167 490 147 462 132 429 C 117 396 110 359 110 318 C 110 276 117 239 132 207 C 146 174 166 146 191 123 C 216 100 245 82 278 70 C 311 58 346 52 382 52 C 394 52 405 52 417 53 C 428 54 439 55 451 57 L 451 578 Z" unicode="Œ" />
<glyph horiz-adv-x="899" d="M 37 226 C 37 260 43 292 55 321 C 67 350 84 375 106 396 C 127 417 152 433 181 445 C 210 457 242 463 276 463 C 298 463 320 460 342 454 C 364 448 384 439 402 428 C 420 417 436 404 450 388 C 464 372 474 354 481 334 C 487 354 496 371 510 387 C 523 403 538 416 555 428 C 572 439 590 448 610 454 C 630 460 649 463 669 463 C 699 463 727 458 751 448 C 775 438 795 424 812 408 C 828 392 841 373 849 352 C 857 331 862 310 862 288 C 862 282 861 277 861 272 C 861 266 860 261 860 257 L 822 220 L 515 220 C 514 198 518 177 526 157 C 534 136 545 117 561 101 C 577 85 596 71 619 61 C 641 51 667 46 696 46 C 724 46 748 49 770 56 C 791 63 810 72 827 84 L 819 21 C 803 11 785 4 764 -1 C 743 -7 718 -10 688 -10 C 666 -10 644 -7 622 -1 C 600 5 580 13 562 24 C 544 35 528 49 514 65 C 500 81 489 100 483 120 C 465 78 438 45 401 23 C 363 1 322 -10 276 -10 C 242 -10 210 -4 181 7 C 152 19 127 35 106 56 C 84 77 67 102 55 131 C 43 159 37 191 37 226 Z M 450 225 C 450 251 445 276 436 298 C 427 320 415 339 399 355 C 383 371 364 383 343 392 C 322 401 300 406 276 406 C 251 406 228 401 207 392 C 185 383 167 371 151 355 C 135 339 123 320 114 298 C 105 276 101 251 101 225 C 101 198 105 174 114 152 C 123 130 135 111 151 95 C 167 79 185 66 207 58 C 228 49 251 45 276 45 C 300 45 322 49 343 58 C 364 66 383 79 399 95 C 415 111 427 130 436 152 C 445 174 450 198 450 225 Z M 797 272 C 797 274 798 276 798 279 C 798 281 798 284 798 287 C 798 301 795 316 789 330 C 783 344 775 357 765 369 C 754 380 741 389 725 397 C 709 404 692 408 672 408 C 653 408 635 404 618 396 C 600 388 585 378 572 366 C 558 354 547 339 538 323 C 528 307 522 290 520 272 L 797 272 Z" unicode="œ" />
<glyph horiz-adv-x="468" d="M 46 116 C 69 97 95 82 125 70 C 155 58 188 53 225 53 C 264 53 296 63 321 84 C 346 105 359 133 359 168 C 359 202 348 229 328 249 C 308 269 276 288 232 304 C 175 324 133 348 107 376 C 80 404 67 441 67 485 C 67 505 70 524 78 543 C 85 562 96 579 112 594 C 127 609 146 621 170 630 C 193 639 221 644 253 644 C 282 644 308 640 332 632 C 355 624 373 616 387 608 L 372 551 C 360 560 342 568 320 576 C 298 584 275 588 251 588 C 231 588 214 585 199 579 C 184 573 172 566 162 557 C 152 547 144 537 139 525 C 133 513 131 501 131 489 C 131 461 140 438 158 420 C 176 402 206 385 246 371 C 274 361 299 350 321 338 C 343 326 362 312 378 296 C 393 280 405 263 413 243 C 421 223 426 199 426 173 C 426 145 421 121 411 99 C 401 77 388 59 370 43 C 352 27 331 15 306 7 C 281 0 253 -5 222 -5 C 185 -5 152 0 124 9 C 95 19 72 30 55 43 L 46 116 Z M 224 719 C 207 745 187 770 164 795 C 140 819 117 841 94 860 L 139 880 C 157 866 175 853 191 839 C 207 825 222 811 236 795 C 250 811 265 825 281 839 C 297 853 315 866 333 880 L 379 860 C 355 841 331 819 308 795 C 284 770 265 745 249 719 C 245 713 241 711 237 711 C 230 711 226 713 224 719 Z" unicode="Š" />
<glyph horiz-adv-x="365" d="M 41 100 C 58 85 78 73 101 63 C 123 53 148 49 176 49 C 201 49 222 55 239 67 C 256 79 265 97 265 119 C 265 139 257 156 242 169 C 227 181 207 192 182 202 C 140 216 108 234 86 255 C 64 275 53 303 53 339 C 53 375 66 403 92 425 C 118 447 151 458 191 458 C 215 458 237 454 257 448 C 277 442 291 435 301 429 L 287 375 C 277 382 263 389 247 395 C 231 401 212 405 190 405 C 168 405 150 399 136 387 C 122 375 115 360 115 341 C 115 321 121 305 134 295 C 147 284 166 274 192 265 C 234 249 268 231 292 209 C 316 187 328 158 328 120 C 328 82 314 52 287 29 C 259 6 222 -5 175 -5 C 147 -5 123 -1 103 4 C 83 10 65 19 50 31 L 41 100 Z M 169 535 C 155 557 138 578 118 599 C 98 620 78 638 58 654 L 97 671 C 113 659 128 648 142 636 C 156 624 168 612 180 599 C 191 612 204 624 218 636 C 232 648 246 659 262 671 L 301 654 C 280 638 260 620 240 599 C 220 578 204 557 190 535 C 187 530 184 528 180 528 C 174 528 171 530 169 535 Z" unicode="š" />
<glyph horiz-adv-x="606" d="M 269 295 C 224 346 181 400 141 457 C 101 514 62 574 26 638 L 101 638 C 129 589 159 540 193 492 C 227 444 264 395 304 347 L 306 347 C 384 441 452 538 510 638 L 580 638 C 543 572 505 512 465 456 C 425 400 381 346 335 295 L 335 0 L 269 0 L 269 295 Z M 181 763 C 181 774 185 784 193 792 C 201 800 211 805 223 805 C 234 805 244 800 252 792 C 260 784 265 774 265 763 C 265 751 260 741 252 733 C 244 725 234 721 223 721 C 211 721 201 725 193 733 C 185 741 181 751 181 763 Z M 329 763 C 329 774 333 784 341 792 C 349 800 359 805 371 805 C 382 805 392 800 400 792 C 408 784 413 774 413 763 C 413 751 408 741 400 733 C 392 725 382 721 371 721 C 359 721 349 725 341 733 C 333 741 329 751 329 763 Z" unicode="Ÿ" />
<glyph horiz-adv-x="521" d="M 261 391 C 279 423 298 455 318 488 C 338 521 356 551 374 578 L 373 580 L 67 580 L 67 638 L 467 638 L 467 621 L 246 245 C 228 213 209 182 189 150 C 169 118 151 88 134 60 L 135 58 L 479 58 L 479 0 L 42 0 L 42 17 L 261 391 Z M 250 721 C 233 747 213 772 190 797 C 166 821 143 843 120 862 L 165 882 C 183 868 201 855 217 841 C 233 827 248 813 262 797 C 276 813 291 827 307 841 C 323 855 341 868 359 882 L 405 862 C 381 843 357 821 334 797 C 310 772 291 747 275 721 C 271 715 267 713 263 713 C 256 713 252 715 250 721 Z" unicode="Ž" />
<glyph horiz-adv-x="423" d="M 197 270 C 209 290 223 312 237 336 C 251 359 264 380 278 400 L 277 401 L 54 401 L 54 453 L 369 453 L 369 439 L 208 182 C 194 160 181 139 167 117 C 153 95 140 74 127 53 L 128 52 L 386 52 L 386 0 L 37 0 L 37 14 L 197 270 Z M 202 535 C 188 557 171 578 151 599 C 131 620 111 638 91 654 L 130 671 C 146 659 161 648 175 636 C 189 624 201 612 213 599 C 224 612 237 624 251 636 C 265 648 279 659 295 671 L 334 654 C 313 638 293 620 273 599 C 253 578 237 557 223 535 C 220 530 217 528 213 528 C 207 528 204 530 202 535 Z" unicode="ž" />
<glyph horiz-adv-x="420" d="M -50 -190 C -17 -182 11 -166 35 -143 C 59 -119 74 -87 82 -47 L 136 258 L 55 258 L 55 298 L 143 298 L 171 460 C 182 523 208 570 248 602 C 288 633 335 649 391 649 C 405 649 418 648 430 646 L 418 593 C 412 594 407 595 401 595 C 395 595 390 595 385 595 C 347 595 314 583 287 561 C 259 538 242 503 234 457 L 206 298 L 323 298 L 313 258 L 200 258 L 144 -52 C 139 -76 132 -99 122 -119 C 112 -139 100 -156 86 -171 C 72 -186 57 -199 41 -209 C 25 -219 8 -226 -9 -230 L -50 -190 Z" unicode="ƒ" />
<glyph horiz-adv-x="187" d="M 141 643 C 128 627 118 610 110 590 C 102 570 99 554 99 542 C 113 540 123 534 131 525 C 138 515 142 505 142 494 C 142 480 137 469 127 459 C 117 449 106 445 93 445 C 79 445 68 449 58 459 C 48 468 44 480 44 494 C 44 505 46 518 50 532 C 54 546 60 560 67 574 C 74 588 82 602 90 615 C 98 628 107 639 116 647 L 141 643 Z" unicode="ʻ" />
<glyph horiz-adv-x="500" d="M 336 582 L 336 527 L 164 527 L 164 582 L 336 582 Z" unicode="ˉ" />
<glyph horiz-adv-x="500" d="M 180 592 C 183 590 192 586 206 580 C 220 574 235 572 251 572 C 267 572 282 574 295 580 C 308 586 316 590 320 592 L 357 554 C 355 552 350 549 344 545 C 338 541 330 536 321 532 C 311 528 301 524 289 521 C 277 517 264 516 251 516 C 237 516 224 517 212 521 C 200 524 189 528 179 532 C 169 536 161 541 155 545 C 149 549 145 552 143 554 L 180 592 Z" unicode="˘" />
<glyph horiz-adv-x="500" d="M 208 563 C 208 574 212 584 220 592 C 228 600 238 605 250 605 C 261 605 271 600 279 592 C 287 584 292 574 292 563 C 292 551 287 541 279 533 C 271 525 261 521 250 521 C 238 521 228 525 220 533 C 212 541 208 551 208 563 Z" unicode="˙" />
<glyph horiz-adv-x="500" d="M 165 -140 C 165 -124 168 -109 174 -95 C 180 -81 189 -68 199 -56 C 209 -44 221 -33 234 -23 C 247 -13 261 -6 275 0 L 334 0 C 318 -7 302 -15 287 -25 C 272 -35 259 -45 248 -57 C 237 -68 228 -80 222 -93 C 215 -106 212 -120 212 -134 C 212 -150 217 -163 228 -172 C 239 -180 253 -185 271 -185 C 284 -185 296 -183 306 -180 C 316 -177 325 -173 335 -167 L 324 -211 C 316 -215 308 -218 298 -221 C 288 -223 275 -225 260 -225 C 247 -225 235 -223 224 -219 C 212 -215 202 -210 194 -203 C 185 -195 178 -186 173 -176 C 167 -166 165 -154 165 -140 Z" unicode="˛" />
<glyph horiz-adv-x="500" d="M 91 535 C 113 553 137 574 161 599 C 185 623 206 648 224 673 C 227 677 231 680 235 683 C 239 686 243 688 247 688 C 249 688 253 686 257 684 C 261 681 266 678 270 674 C 274 670 277 665 280 661 C 282 657 284 653 284 651 C 284 647 283 644 281 641 C 279 637 276 634 273 631 C 253 608 232 587 209 569 C 185 550 161 532 135 516 L 91 535 Z M 233 535 C 256 553 280 574 304 599 C 328 623 349 648 366 673 C 369 677 373 680 377 683 C 381 686 385 688 389 688 C 392 688 396 686 400 684 C 404 681 409 678 413 674 C 417 670 420 665 423 661 C 425 657 427 653 427 651 C 427 647 426 644 424 641 C 422 637 419 634 416 631 C 396 608 375 587 351 569 C 327 550 303 532 278 516 L 233 535 Z" unicode="˝" />
<glyph horiz-adv-x="338" d="M 294 304 L 294 250 L 44 250 L 44 304 L 294 304 Z" unicode="‐" />
<glyph horiz-adv-x="338" d="M 294 304 L 294 250 L 44 250 L 44 304 L 294 304 Z" unicode="‑" />
<glyph horiz-adv-x="500" d="M 502 249 L 502 203 L 0 203 L 0 249 L 502 249 Z" unicode="–" />
<glyph horiz-adv-x="1000" d="M 1002 249 L 1002 203 L 0 203 L 0 249 L 1002 249 Z" unicode="—" />
<glyph horiz-adv-x="187" d="M 141 643 C 128 627 118 610 110 590 C 102 570 99 554 99 542 C 113 540 123 534 131 525 C 138 515 142 505 142 494 C 142 480 137 469 127 459 C 117 449 106 445 93 445 C 79 445 68 449 58 459 C 48 468 44 480 44 494 C 44 505 46 518 50 532 C 54 546 60 560 67 574 C 74 588 82 602 90 615 C 98 628 107 639 116 647 L 141 643 Z" unicode="‘" />
<glyph horiz-adv-x="187" d="M 45 451 C 57 467 67 484 75 504 C 83 524 87 540 87 552 C 73 554 62 560 55 570 C 47 579 44 589 44 601 C 44 614 48 625 58 635 C 68 645 79 650 93 650 C 106 650 117 645 127 636 C 137 626 142 615 142 601 C 142 589 139 576 135 562 C 131 548 125 534 118 520 C 111 506 103 492 95 479 C 87 466 78 455 70 447 L 45 451 Z" unicode="’" />
<glyph horiz-adv-x="186" d="M 45 -111 C 57 -95 67 -77 75 -57 C 83 -37 87 -22 87 -10 C 73 -7 62 -1 55 8 C 47 17 44 27 44 39 C 44 52 48 63 58 73 C 68 83 79 88 93 88 C 106 88 117 83 127 74 C 137 64 142 53 142 39 C 142 27 139 14 135 0 C 131 -13 125 -28 118 -42 C 111 -56 103 -69 95 -82 C 87 -95 78 -106 70 -115 L 45 -111 Z" unicode="‚" />
<glyph horiz-adv-x="346" d="M 301 643 C 288 627 278 610 270 590 C 262 570 259 554 259 542 C 273 540 283 534 291 525 C 298 515 302 505 302 494 C 302 480 297 469 287 459 C 277 449 266 445 253 445 C 239 445 228 449 218 459 C 208 468 204 480 204 494 C 204 505 206 518 210 532 C 214 546 220 560 227 574 C 234 588 242 602 250 615 C 258 628 267 639 276 647 L 301 643 Z M 141 643 C 128 627 118 610 110 590 C 102 570 99 554 99 542 C 113 540 123 534 131 525 C 138 515 142 505 142 494 C 142 480 137 469 127 459 C 117 449 106 445 93 445 C 79 445 68 449 58 459 C 48 468 44 480 44 494 C 44 505 46 518 50 532 C 54 546 60 560 67 574 C 74 588 82 602 90 615 C 98 628 107 639 116 647 L 141 643 Z" unicode="“" />
<glyph horiz-adv-x="346" d="M 45 451 C 57 467 67 484 75 504 C 83 524 87 540 87 552 C 73 554 62 560 55 570 C 47 579 44 589 44 601 C 44 614 48 625 58 635 C 68 645 79 650 93 650 C 106 650 117 645 127 636 C 137 626 142 615 142 601 C 142 589 139 576 135 562 C 131 548 125 534 118 520 C 111 506 103 492 95 479 C 87 466 78 455 70 447 L 45 451 Z M 205 451 C 217 467 227 484 235 504 C 243 524 247 540 247 552 C 233 554 222 560 215 570 C 207 579 204 589 204 601 C 204 614 208 625 218 635 C 228 645 239 650 253 650 C 266 650 277 645 287 636 C 297 626 302 615 302 601 C 302 589 299 576 295 562 C 291 548 285 534 278 520 C 271 506 263 492 255 479 C 247 466 238 455 230 447 L 205 451 Z" unicode="”" />
<glyph horiz-adv-x="346" d="M 45 -111 C 57 -95 67 -77 75 -57 C 83 -37 87 -22 87 -10 C 73 -7 62 -1 55 8 C 47 17 44 27 44 39 C 44 52 48 63 58 73 C 68 83 79 88 93 88 C 106 88 117 83 127 74 C 137 64 142 53 142 39 C 142 27 139 14 135 0 C 131 -13 125 -28 118 -42 C 111 -56 103 -69 95 -82 C 87 -95 78 -106 70 -115 L 45 -111 Z M 205 -111 C 217 -95 227 -77 235 -57 C 243 -37 247 -22 247 -10 C 233 -7 222 -1 215 8 C 207 17 204 27 204 39 C 204 52 208 63 218 73 C 228 83 239 88 253 88 C 266 88 277 83 287 74 C 297 64 302 53 302 39 C 302 27 299 14 295 0 C 291 -13 285 -28 278 -42 C 271 -56 263 -69 255 -82 C 247 -95 238 -106 230 -115 L 205 -111 Z" unicode="„" />
<glyph horiz-adv-x="403" d="M 44 395 L 44 459 L 170 446 L 169 557 L 234 557 L 233 446 L 359 459 L 359 395 L 232 408 L 221 -226 L 182 -226 L 172 408 L 44 395 Z" unicode="†" />
<glyph horiz-adv-x="403" d="M 44 -128 L 44 -64 L 172 -77 L 175 166 L 172 408 L 44 395 L 44 459 L 170 446 L 169 557 L 234 557 L 233 446 L 359 459 L 359 395 L 232 408 L 228 166 L 232 -77 L 359 -64 L 359 -128 L 233 -115 L 234 -226 L 169 -226 L 170 -115 L 44 -128 Z" unicode="‡" />
<glyph horiz-adv-x="354" d="M 44 277 C 44 296 47 314 54 330 C 60 346 70 359 82 371 C 94 383 108 392 124 399 C 140 405 158 409 177 409 C 195 409 213 405 229 399 C 245 392 260 383 272 371 C 284 359 293 346 300 330 C 306 314 310 296 310 277 C 310 257 306 240 300 224 C 293 208 284 194 272 182 C 260 170 245 161 229 155 C 213 149 195 146 177 146 C 158 146 140 149 124 155 C 108 161 94 170 82 182 C 70 194 60 208 54 224 C 47 240 44 257 44 277 Z" unicode="•" />
<glyph horiz-adv-x="561" d="M 44 39 C 44 52 48 63 58 73 C 68 83 79 88 93 88 C 106 88 117 83 127 73 C 137 63 142 52 142 39 C 142 25 137 14 127 4 C 117 -5 106 -10 93 -10 C 79 -10 68 -5 58 4 C 48 14 44 25 44 39 Z M 231 39 C 231 52 235 63 245 73 C 255 83 266 88 280 88 C 293 88 304 83 314 73 C 324 63 329 52 329 39 C 329 25 324 14 314 4 C 304 -5 293 -10 280 -10 C 266 -10 255 -5 245 4 C 235 14 231 25 231 39 Z M 419 39 C 419 52 423 63 433 73 C 443 83 454 88 468 88 C 481 88 492 83 502 73 C 512 63 517 52 517 39 C 517 25 512 14 502 4 C 492 -5 481 -10 468 -10 C 454 -10 443 -5 433 4 C 423 14 419 25 419 39 Z" unicode="…" />
<glyph horiz-adv-x="1043" d="M 37 514 C 37 534 40 552 47 568 C 53 584 63 599 75 611 C 87 623 101 632 117 639 C 133 645 151 649 171 649 C 190 649 208 645 224 639 C 240 632 255 623 267 611 C 279 599 288 584 295 568 C 302 552 306 534 306 514 C 306 494 302 475 295 459 C 288 442 279 428 267 416 C 255 404 240 395 224 389 C 208 382 190 379 171 379 C 151 379 133 382 117 389 C 101 395 87 404 75 416 C 63 428 53 442 47 459 C 40 475 37 494 37 514 Z M 253 514 C 253 540 244 561 228 576 C 212 591 193 599 171 599 C 149 599 130 591 114 576 C 98 561 90 540 90 514 C 90 487 98 466 114 451 C 130 435 149 428 171 428 C 193 428 212 435 228 451 C 244 466 253 487 253 514 Z M 389 125 C 389 145 392 163 399 179 C 405 195 415 210 427 222 C 439 234 453 243 469 250 C 485 256 503 260 523 260 C 542 260 560 256 576 250 C 592 243 607 234 619 222 C 631 210 640 195 647 179 C 654 163 658 145 658 125 C 658 105 654 86 647 70 C 640 53 631 39 619 27 C 607 15 592 5 576 -1 C 560 -7 542 -11 523 -11 C 503 -11 485 -7 469 -1 C 453 5 439 15 427 27 C 415 39 405 53 399 70 C 392 86 389 105 389 125 Z M 605 125 C 605 151 596 172 580 187 C 564 201 545 209 523 209 C 501 209 482 201 466 187 C 450 172 442 151 442 125 C 442 98 450 77 466 61 C 482 45 501 38 523 38 C 545 38 564 45 580 61 C 596 77 605 98 605 125 Z M 731 125 C 731 145 734 163 741 179 C 747 195 757 210 769 222 C 781 234 795 243 811 250 C 827 256 845 260 865 260 C 884 260 902 256 918 250 C 934 243 949 234 961 222 C 973 210 982 195 989 179 C 996 163 1000 145 1000 125 C 1000 105 996 86 989 70 C 982 53 973 39 961 27 C 949 15 934 5 918 -1 C 902 -7 884 -11 865 -11 C 845 -11 827 -7 811 -1 C 795 5 781 15 769 27 C 757 39 747 53 741 70 C 734 86 731 105 731 125 Z M 947 125 C 947 151 938 172 922 187 C 906 201 887 209 865 209 C 843 209 824 201 808 187 C 792 172 784 151 784 125 C 784 98 792 77 808 61 C 824 45 843 38 865 38 C 887 38 906 45 922 61 C 938 77 947 98 947 125 Z M 593 657 L 625 630 L 101 -19 L 68 9 L 593 657 Z" unicode="‰" />
<glyph horiz-adv-x="205" d="M 39 206 C 35 208 32 212 30 216 C 27 220 26 223 26 226 C 26 228 27 232 30 236 C 32 240 35 243 39 246 C 58 260 78 278 98 300 C 118 321 136 341 151 361 L 161 336 C 143 296 123 259 101 226 C 123 192 143 156 161 116 L 151 91 C 136 110 118 130 98 152 C 78 173 58 191 39 206 Z" unicode="‹" />
<glyph horiz-adv-x="205" d="M 44 116 C 52 135 61 154 71 172 C 81 190 92 208 104 226 C 92 243 81 261 71 279 C 61 297 52 316 44 336 L 55 361 C 69 341 87 321 107 300 C 127 278 146 260 166 246 C 169 243 172 240 175 236 C 177 232 179 228 179 226 C 179 223 177 220 175 216 C 172 212 169 208 166 206 C 146 191 127 173 107 152 C 87 130 69 110 55 91 L 44 116 Z" unicode="›" />
<glyph horiz-adv-x="648" d="M 570 657 L 602 630 L 78 -19 L 46 9 L 570 657 Z" unicode="⁄" />
<glyph horiz-adv-x="493" d="M 17 246 L 17 286 L 97 286 C 96 291 96 296 96 302 C 96 308 96 313 96 319 C 96 325 96 332 96 338 C 96 344 96 350 97 356 L 17 356 L 17 397 L 101 397 C 107 436 117 471 131 502 C 145 533 163 559 184 581 C 204 602 227 618 253 629 C 279 640 306 646 334 646 C 362 646 385 643 403 637 C 421 631 437 624 451 616 L 439 561 C 426 569 411 576 394 581 C 376 586 358 589 338 589 C 296 589 259 572 228 540 C 196 507 176 459 166 397 L 355 397 L 346 356 L 161 356 C 160 350 160 343 160 337 C 160 331 160 324 160 318 C 160 312 160 307 160 302 C 160 296 160 291 161 286 L 344 286 L 335 246 L 165 246 C 169 214 177 185 189 161 C 200 136 213 115 229 99 C 244 82 261 69 280 61 C 299 52 319 48 339 48 C 380 48 414 57 442 75 L 434 15 C 423 7 409 2 391 -2 C 373 -6 354 -8 334 -8 C 305 -8 278 -2 252 9 C 226 20 202 36 182 58 C 162 79 144 105 130 137 C 116 169 106 205 100 246 L 17 246 Z" unicode="€" />
<glyph horiz-adv-x="452" d="M 37 462 C 37 489 41 514 51 537 C 61 560 74 580 91 596 C 108 612 128 625 151 635 C 174 644 199 649 226 649 C 252 649 277 644 300 635 C 323 625 343 612 360 596 C 377 580 390 560 400 537 C 410 514 415 489 415 462 C 415 434 410 409 400 386 C 390 363 377 343 360 327 C 343 310 323 297 300 288 C 277 278 252 274 226 274 C 199 274 174 278 151 288 C 128 297 108 310 91 327 C 74 343 61 363 51 386 C 41 409 37 434 37 462 Z M 381 462 C 381 484 377 505 369 525 C 361 544 350 560 336 574 C 322 588 306 598 287 606 C 268 613 248 617 226 617 C 204 617 183 613 164 606 C 145 598 129 588 115 574 C 101 560 90 544 82 525 C 74 505 71 484 71 462 C 71 438 74 417 82 398 C 90 379 101 363 115 349 C 129 335 145 325 164 317 C 183 309 204 306 226 306 C 248 306 268 309 287 317 C 306 325 322 335 336 349 C 350 363 361 379 369 398 C 377 417 381 438 381 462 Z M 238 575 C 257 575 274 568 289 556 C 303 544 311 528 311 509 C 311 489 303 473 289 460 C 274 447 257 441 238 441 L 207 441 L 207 347 L 171 347 L 171 575 L 238 575 Z M 235 474 C 247 474 256 477 264 483 C 271 489 275 498 275 509 C 275 519 271 528 264 534 C 256 540 247 543 235 543 L 207 543 L 207 474 L 235 474 Z" unicode="℗" />
<glyph horiz-adv-x="416" d="M 203 453 L 176 453 L 190 638 L 209 638 L 277 499 L 344 638 L 364 638 L 378 453 L 350 453 L 341 571 L 281 452 L 270 452 L 212 570 L 203 453 Z M 22 612 L 22 638 L 163 638 L 163 612 L 107 612 L 107 453 L 78 453 L 78 612 L 22 612 Z" unicode="™" />
<glyph horiz-adv-x="431" d="M 376 298 L 376 251 L 55 251 L 55 298 L 376 298 Z" unicode="−" />
<glyph horiz-adv-x="648" d="M 570 657 L 602 630 L 78 -19 L 46 9 L 570 657 Z" unicode="∕" />
<glyph horiz-adv-x="186" d="M 44 270 C 44 283 48 294 58 304 C 68 314 79 319 93 319 C 106 319 117 314 127 304 C 137 294 142 283 142 270 C 142 256 137 245 127 235 C 117 225 106 221 93 221 C 79 221 68 225 58 235 C 48 245 44 256 44 270 Z" unicode="∙" />
<glyph horiz-adv-x="574" d="M 20 238 L 29 298 L 111 298 L 166 172 C 171 160 175 150 179 140 C 182 130 186 120 190 109 L 192 109 C 203 137 216 169 231 205 C 245 241 260 275 274 309 L 444 712 L 561 712 L 561 658 L 482 658 L 201 -6 L 176 -6 L 71 238 L 20 238 Z" unicode="√" />
<glyph horiz-adv-x="463" d="M 48 191 C 76 223 115 240 164 240 C 178 240 191 238 202 234 C 213 230 224 225 235 220 C 246 214 257 209 268 205 C 278 200 290 198 304 198 C 324 198 343 202 359 210 C 375 218 390 229 403 243 L 415 191 C 387 159 349 143 300 143 C 285 143 272 144 261 148 C 250 152 239 156 229 162 C 217 167 205 172 194 177 C 183 182 171 185 159 185 C 139 185 120 181 104 173 C 88 165 73 154 61 140 L 48 191 Z M 48 363 C 76 395 115 412 164 412 C 178 412 191 410 202 406 C 213 402 224 397 235 392 C 246 386 257 381 268 377 C 278 372 290 370 304 370 C 324 370 343 374 359 382 C 375 390 390 401 403 415 L 415 363 C 387 331 349 315 300 315 C 285 315 272 316 261 320 C 250 324 239 328 229 334 C 217 339 205 344 194 349 C 183 354 171 357 159 357 C 139 357 120 353 104 345 C 88 337 73 326 61 312 L 48 363 Z" unicode="≈" />
<glyph horiz-adv-x="462" d="M 44 315 L 418 437 L 418 379 L 96 277 L 418 175 L 418 118 L 44 240 L 44 315 Z M 418 55 L 418 0 L 44 0 L 44 55 L 418 55 Z" unicode="≤" />
<glyph horiz-adv-x="462" d="M 366 277 L 44 379 L 44 437 L 418 315 L 418 240 L 44 118 L 44 175 L 366 277 Z M 418 55 L 418 0 L 44 0 L 44 55 L 418 55 Z" unicode="≥" />
<glyph horiz-adv-x="591" d="M 290 489 L 502 277 L 290 65 L 79 277 L 290 489 Z M 290 426 L 141 277 L 290 128 L 440 277 L 290 426 Z" unicode="◊" />
<glyph horiz-adv-x="600" d="M 511 453 L 511 204 L 565 151 C 565 133 559 120 547 111 C 535 101 523 97 511 97 L 511 0 L 39 0 L 39 453 L 511 453 Z M 485 106 L 100 288 C 86 295 74 304 65 315 L 65 25 L 485 25 L 485 106 Z M 65 388 C 65 364 73 345 89 329 C 105 313 124 305 148 305 C 171 305 191 313 207 329 C 223 345 231 364 231 388 L 65 388 Z M 326 388 L 485 229 L 485 388 L 326 388 Z" unicode="" />
</font>
</defs>
</svg>
